<svg xmlns="http://www.w3.org/2000/svg" width="100.086" height="43.244" viewBox="0 0 100.086 43.244">
  <g id="Group_162015" data-name="Group 162015" transform="translate(-6102 15580.99)">
    <path id="Path_38173" data-name="Path 38173" d="M60.882.321h-1.5V43.564h1.5Z" transform="translate(6074.081 -15581.311)" fill="#c4c6c8" fill-rule="evenodd"/>
    <path id="Path_38174" data-name="Path 38174" d="M91.878.321h-1.5V43.564h1.5Z" transform="translate(6078.738 -15581.311)" fill="#c4c6c8" fill-rule="evenodd"/>
    <path id="Path_38175" data-name="Path 38175" d="M58.916,20.9H46.8v-4.81a9.478,9.478,0,0,0-.413-3.414,1.533,1.533,0,0,0-1.531-.9,1.488,1.488,0,0,0-1.487.794,9.749,9.749,0,0,0-.391,3.521v19.69a7.666,7.666,0,0,0,.575,3.35,1.818,1.818,0,0,0,1.683,1.117,1.735,1.735,0,0,0,1.769-1.17,13.994,13.994,0,0,0,.456-4.4V29.707H58.916a63.548,63.548,0,0,1-.369,7.5,11.816,11.816,0,0,1-2.128,5.132,11.3,11.3,0,0,1-4.69,3.961,17.025,17.025,0,0,1-7.154,1.331,17.233,17.233,0,0,1-8.62-1.836,10.15,10.15,0,0,1-4.505-5.164,26.445,26.445,0,0,1-1.314-9.415V19.369a22.874,22.874,0,0,1,1.075-8.03,10.463,10.463,0,0,1,4.614-4.82,16.377,16.377,0,0,1,8.587-2.126A16.557,16.557,0,0,1,53,6.5a10.424,10.424,0,0,1,4.744,5.314A27.652,27.652,0,0,1,58.916,20.9Z" transform="translate(6071.863 -15585.382)" fill="#004a92" fill-rule="evenodd"/>
    <path id="Path_38176" data-name="Path 38176" d="M89.526,18.477H78.138V16.223a11.777,11.777,0,0,0-.337-3.672q-.326-.773-1.661-.773a1.913,1.913,0,0,0-1.628.709,3.493,3.493,0,0,0-.543,2.126,10.841,10.841,0,0,0,.271,2.813A4.475,4.475,0,0,0,75.87,19.39,33.9,33.9,0,0,0,81.417,22.5c3.734,1.8,6.177,3.511,7.349,5.1s1.748,3.908,1.748,6.957q0,5.089-1.335,7.687a8.879,8.879,0,0,1-4.473,3.994,18.407,18.407,0,0,1-7.556,1.4,21.185,21.185,0,0,1-8.381-1.5,9.137,9.137,0,0,1-4.787-4.09c-.868-1.718-1.3-4.326-1.3-7.8V32.23H74.068v2.641a13.457,13.457,0,0,0,.434,4.37A1.649,1.649,0,0,0,76.2,40.25a2.322,2.322,0,0,0,1.911-.676,5.036,5.036,0,0,0,.543-2.845c0-2-.228-3.242-.695-3.747-.489-.5-2.985-1.986-7.48-4.466q-5.667-3.14-6.9-5.711a13.862,13.862,0,0,1-1.238-6.087q0-4.992,1.335-7.375A8.649,8.649,0,0,1,68.205,5.68a19.744,19.744,0,0,1,7.425-1.288,21.362,21.362,0,0,1,7.132,1.052,11.016,11.016,0,0,1,4.516,2.781,7.4,7.4,0,0,1,1.911,3.21,22.668,22.668,0,0,1,.337,4.627Z" transform="translate(6075.321 -15585.382)" fill="#c4c6c8" fill-rule="evenodd"/>
    <path id="Path_38177" data-name="Path 38177" d="M122.4,20.9H110.289v-4.81a9.477,9.477,0,0,0-.413-3.414,1.533,1.533,0,0,0-1.531-.9,1.488,1.488,0,0,0-1.487.794,9.749,9.749,0,0,0-.391,3.521v19.69a7.666,7.666,0,0,0,.575,3.35,1.818,1.818,0,0,0,1.683,1.117,1.735,1.735,0,0,0,1.769-1.17,13.993,13.993,0,0,0,.456-4.4V29.707H122.4a63.553,63.553,0,0,1-.369,7.5,11.816,11.816,0,0,1-2.128,5.132,11.3,11.3,0,0,1-4.69,3.961,17.025,17.025,0,0,1-7.154,1.331,17.233,17.233,0,0,1-8.62-1.836,10.15,10.15,0,0,1-4.505-5.164,26.445,26.445,0,0,1-1.314-9.415V19.369a22.874,22.874,0,0,1,1.075-8.03,10.463,10.463,0,0,1,4.614-4.82A16.377,16.377,0,0,1,107.9,4.392a16.557,16.557,0,0,1,8.587,2.1,10.424,10.424,0,0,1,4.744,5.314A27.652,27.652,0,0,1,122.4,20.9Z" transform="translate(6079.682 -15585.382)" fill="#004a92" fill-rule="evenodd"/>
  </g>
</svg>
