<svg xmlns="http://www.w3.org/2000/svg" width="13.834" height="12.846" viewBox="0 0 13.834 12.846">
  <path id="Path_38160" data-name="Path 38160" d="M19.443,17.556v1.976A2.474,2.474,0,0,1,16.973,22H8.079a2.474,2.474,0,0,1-2.47-2.47V17.556a.494.494,0,1,1,.988,0v1.976a1.484,1.484,0,0,0,1.482,1.482h8.893a1.484,1.484,0,0,0,1.482-1.482V17.556a.494.494,0,1,1,.988,0Zm-8.1,1.361a1.443,1.443,0,0,0,2.364,0l2.631-3.759a.988.988,0,0,0-.81-1.555H14.5V9.65a.494.494,0,0,0-.494-.494H11.044a.494.494,0,0,0-.494.494V13.6H9.522a.988.988,0,0,0-.81,1.554Z" transform="translate(-5.609 -9.156)" fill="#fff"/>
</svg>
