<svg xmlns="http://www.w3.org/2000/svg" width="48.171" height="48.171" viewBox="0 0 48.171 48.171"><path d="M24.086,0A24.15,24.15,0,1,1,7.073,7.073,24.013,24.013,0,0,1,24.086,0ZM19.391,19.781a.894.894,0,0,0-.763.359c-.4.6.146,1.194.525,1.611,1.076,1.181,3.714,4.021,4.245,4.645a.878.878,0,0,0,1.378,0c.549-.641,3.319-3.609,4.342-4.758.355-.4.794-.945.425-1.5a.9.9,0,0,0-.764-.359H26.6V14.369a1.054,1.054,0,0,0-1.05-1.05H22.627a1.054,1.054,0,0,0-1.05,1.05v5.412H19.391Zm-7.025,5.977a1.077,1.077,0,0,1,2.094-.507c.14.577.26,1.157.375,1.74.216,1.088.375,1.771.777,2.111.426.36,1.231.484,2.773.484H30.062c1.424,0,2.167-.136,2.558-.489a3.769,3.769,0,0,0,.714-2.029l0-.02c.112-.6.229-1.2.373-1.8a1.077,1.077,0,0,1,2.094.5v0c-.136.566-.245,1.133-.351,1.7v0c-.281,1.506-.512,2.54-1.284,3.265s-1.952,1.018-4.108,1.018H18.386c-2.254,0-3.493-.271-4.29-.977-.817-.723-1.064-1.773-1.38-3.366-.109-.55-.218-1.1-.35-1.646ZM24.086,2.315A21.771,21.771,0,1,1,2.315,24.086,21.834,21.834,0,0,1,24.086,2.315Z" fill="#fff" fill-rule="evenodd"/></svg>