<svg xmlns="http://www.w3.org/2000/svg" width="20.024" height="17.549" viewBox="0 0 20.024 17.549">
  <path id="Path_38163" data-name="Path 38163" d="M14.053,4.877a7.834,7.834,0,0,0-1.463.974l-.787-.9a6.834,6.834,0,0,1,1.98-1.267A5.014,5.014,0,0,0,6.419,2.221,4.765,4.765,0,0,0,4.674,5.17L4.6,5.578l-.406.072a5.6,5.6,0,0,0-1.067.288,2.916,2.916,0,0,0-1.3,4.568,2.807,2.807,0,0,0,2.013,1.174H5.08a5,5,0,0,0-.067.819q0,.191.014.378H3.814l-.075-.006A4.024,4.024,0,0,1,.854,11.206a4.11,4.11,0,0,1,1.84-6.384,6.524,6.524,0,0,1,.894-.273,5.878,5.878,0,0,1,2.1-3.275,6.207,6.207,0,0,1,9.28,2.094,4.679,4.679,0,0,1,.779-.059c3.868.029,5.4,4.975,3.39,7.64a5.568,5.568,0,0,1-3.309,1.91l-.134.016h-.718c.009-.125.014-.251.014-.378a5,5,0,0,0-.068-.819h.7a4.406,4.406,0,0,0,2.551-1.445c1.426-1.9.414-5.712-2.44-5.73a4.123,4.123,0,0,0-1.688.374ZM9.124,9.827h1.757a.75.75,0,0,1,.747.747v2.582H12.91a.67.67,0,0,1,.572.269c.3.451-.109.9-.394,1.208-.807.886-2.17,2.2-2.568,2.666a.658.658,0,0,1-1.033,0c-.411-.481-1.879-1.889-2.646-2.751-.267-.3-.6-.708-.318-1.124a.676.676,0,0,1,.573-.269H8.377V10.575A.751.751,0,0,1,9.124,9.827Z" transform="translate(0.001 -0.002)" fill="#075307"/>
</svg>
