<svg xmlns="http://www.w3.org/2000/svg" width="38.783" height="32.425" viewBox="0 0 38.783 32.425">
  <g id="Group_161775" data-name="Group 161775" transform="translate(0.001 -0.003)">
    <path id="Path_38156" data-name="Path 38156" d="M23.78,16.575V13.939c.12-.508.344-.66.593-.707.682-.107.609,3.185-.593,3.342Zm-9.254-4.5c.521.2.631.631.341.8-.341.193-.773-.095-1.108-.2a3.282,3.282,0,0,0-2.661.161,4,4,0,0,0-.612.486,2.108,2.108,0,0,1,.372-.748c.754-.956,2.654-1.01,3.667-.492Zm3.286,0c-.521.2-.631.631-.341.8.341.193.773-.095,1.108-.2a3.282,3.282,0,0,1,2.661.161,4,4,0,0,1,.612.486,2.108,2.108,0,0,0-.372-.748c-.754-.956-2.654-1.01-3.667-.492ZM3.4,8.2H7.877A22.214,22.214,0,0,1,8.1,5.37c.353-2.531,3.014-7.663,6.331-4.188,1.468,1.376,2.512,1.161,3.989.073,1.31-.966,2.806-2.3,4.611.107,1.016,1.354,1.2,3.469,1.411,4.949l.136.953c.073.3.139.609.189.941H29.2a1.276,1.276,0,0,1,1.313,1.228h0A1.276,1.276,0,0,1,29.2,10.66H24.951c0,.524-.019,1.073-.06,1.657l-.5.309a.851.851,0,0,1,.852.644,2.511,2.511,0,0,1,.158.754,4.614,4.614,0,0,1-.019.855c-.12,1.079-.615,2.206-1.534,2.342a.508.508,0,0,1-.12,0v.158a4.209,4.209,0,0,1-1.66,3.8.364.364,0,0,1,.1.066,5.373,5.373,0,0,0,2.68,1.761c.328.117.723.256,1.2.445h0a.327.327,0,0,0,.032.013,14.044,14.044,0,0,1,2.282,1.5c.076-.347.142-.7.2-1.054l1.48.615a7.978,7.978,0,0,0-.925,1.1,11.958,11.958,0,0,1,1.029,1.12,13.37,13.37,0,0,1,2.433,5.29.242.242,0,0,1,.013.085.293.293,0,0,1-.294.294H.293a.387.387,0,0,1-.06-.006.294.294,0,0,1-.227-.347A13.337,13.337,0,0,1,2.13,26.933a9.965,9.965,0,0,1,4.078-3.219h0c.316-.145.656-.3.966-.436h0a8.14,8.14,0,0,0,3.232-2.19.084.084,0,0,1,.019-.016l-.013-.009A4.193,4.193,0,0,1,8.8,18.241a.539.539,0,0,1-.009-.1h0v-.925a.408.408,0,0,1-.151,0c-.918-.136-1.417-1.262-1.534-2.342a4.906,4.906,0,0,1-.019-.855,2.7,2.7,0,0,1,.158-.754.834.834,0,0,1,.956-.631,1.023,1.023,0,0,1,.587.344V12.6l-.376-.211a4.54,4.54,0,0,1,.095-1.742H3.4A1.276,1.276,0,0,1,2.089,9.423h0A1.274,1.274,0,0,1,3.4,8.2ZM23,10.657H9.477v7.489c.369,1.777.606,1.7,1.745,2.818L13.195,22.9a2.853,2.853,0,0,0,1.187.568,13.228,13.228,0,0,0,3.977.006,2.855,2.855,0,0,0,1.206-.786L21,21.293c1.386-1.344,2.105-1.7,2-3.926v-6.71Zm13.4,2.7A32.893,32.893,0,0,0,38.781,9.7a27.222,27.222,0,0,1-1.752,3.652l-.628,0Zm-2.181-1.2a33.136,33.136,0,0,1,1.505-4.141,20.5,20.5,0,0,0-1.868,3.633l.363.508Zm3.554-4.393a21.606,21.606,0,0,0-1.234,4.352,2.1,2.1,0,0,1-.372.833,1.01,1.01,0,0,1-.445.294c-.8.278-1.177-.218-1.247-.947a1.49,1.49,0,0,1,.287-.739,4.154,4.154,0,0,1,.991-.972c1.076-.776,1.351-1.657,2.02-2.822Zm-5.555,15.1a4.569,4.569,0,0,0,1.06-.079,2,2,0,0,0,.789-.369c-.151.215-.306.423-.464.631-.656.858-1.5,1.84-2.7,1.616a.933.933,0,0,1-.776-.625.79.79,0,0,1,.417-.918,2.935,2.935,0,0,1,1.676-.256ZM33.359,20.5a4.54,4.54,0,0,0,1.057-.11A1.994,1.994,0,0,0,35.193,20q-.218.327-.445.644c-.631.877-1.439,1.884-2.654,1.695a.928.928,0,0,1-.8-.6.789.789,0,0,1,.388-.931,3.024,3.024,0,0,1,1.673-.3Zm1.026-2.171a4.506,4.506,0,0,0,1.051-.164,1.979,1.979,0,0,0,.757-.432c-.133.224-.271.448-.413.666-.587.906-1.345,1.954-2.566,1.827a.929.929,0,0,1-.824-.562.789.789,0,0,1,.341-.95,2.989,2.989,0,0,1,1.654-.385Zm1.18-2.272a4.384,4.384,0,0,0,1.057-.123,2.042,2.042,0,0,0,.773-.4c-.142.218-.287.436-.439.65-.622.884-1.42,1.9-2.635,1.723a.934.934,0,0,1-.8-.593.788.788,0,0,1,.379-.934,2.978,2.978,0,0,1,1.666-.322Zm1.083-2.228a4.277,4.277,0,0,0,1.042-.218,1.985,1.985,0,0,0,.735-.47c-.123.23-.246.461-.379.688-.54.934-1.244,2.017-2.471,1.954a.931.931,0,0,1-.852-.521.791.791,0,0,1,.294-.966,3.022,3.022,0,0,1,1.632-.467Zm-7.7,7.243a4.4,4.4,0,0,1-.518-.928,1.973,1.973,0,0,1-.126-.862c-.095.243-.186.489-.271.735-.353,1.023-.71,2.263.145,3.147a.931.931,0,0,0,.95.3.79.79,0,0,0,.537-.855,2.96,2.96,0,0,0-.716-1.54Zm1.19-2.244a4.4,4.4,0,0,1-.518-.928,1.973,1.973,0,0,1-.126-.862c-.095.243-.186.489-.271.735-.353,1.023-.71,2.263.145,3.147a.931.931,0,0,0,.95.3.79.79,0,0,0,.537-.855,3.009,3.009,0,0,0-.716-1.54Zm1.187-2.244a4.4,4.4,0,0,1-.518-.928,1.974,1.974,0,0,1-.126-.862c-.095.243-.186.489-.271.735-.353,1.023-.71,2.263.145,3.147a.931.931,0,0,0,.95.3.79.79,0,0,0,.537-.855,3.009,3.009,0,0,0-.716-1.54Zm1.146-2.263a4.4,4.4,0,0,1-.518-.928,1.973,1.973,0,0,1-.126-.862c-.095.243-.186.489-.271.735-.353,1.019-.71,2.263.145,3.147a.931.931,0,0,0,.95.3.79.79,0,0,0,.537-.855,2.982,2.982,0,0,0-.716-1.54Zm1.218-2.244a4.317,4.317,0,0,1-.47-.953,1.969,1.969,0,0,1-.082-.868c-.107.24-.208.48-.306.723-.4,1-.821,2.225-.013,3.15a.93.93,0,0,0,.934.35.789.789,0,0,0,.578-.827,3.018,3.018,0,0,0-.641-1.575ZM11.118,21.747l-.006.006a8.159,8.159,0,0,1-3.248,2.2c-.205.092-.429.189-.669.3a7.172,7.172,0,0,0,4.163,3.592,13.4,13.4,0,0,0,4.359.931,12.041,12.041,0,0,0,4.463-.609A7.673,7.673,0,0,0,24.888,24c-.3-.12-.555-.218-.776-.3a5.582,5.582,0,0,1-2.626-1.752.084.084,0,0,1-.016-.019.259.259,0,0,1-.063-.11c-.035.032-.066.066-.1.1l-1.37,1.329a3.839,3.839,0,0,1-.666.559,3.156,3.156,0,0,1-.739.35,12.974,12.974,0,0,1-4.235.006,3.617,3.617,0,0,1-.716-.243,3.122,3.122,0,0,1-.669-.423l-.032-.028-1.761-1.72Zm.691-7.8a.208.208,0,0,1-.271-.151.255.255,0,0,1,.133-.309,3.589,3.589,0,0,1,2.6,0,.251.251,0,0,1,.139.306.208.208,0,0,1-.268.158,4.437,4.437,0,0,0-.429-.129.536.536,0,0,1,.022.161.6.6,0,1,1-1.206,0,.557.557,0,0,1,.047-.23,3.188,3.188,0,0,0-.767.2Zm6.981-.18a.6.6,0,1,0,1.168.215.576.576,0,0,0-.063-.265,3.869,3.869,0,0,1,.8.174.211.211,0,0,0,.265-.167.254.254,0,0,0-.148-.3,4.167,4.167,0,0,0-1.3-.211,4.118,4.118,0,0,0-1.285.211.247.247,0,0,0-.145.3.213.213,0,0,0,.265.167,3.925,3.925,0,0,1,.448-.12Zm.126,5.454a8.515,8.515,0,0,1-.906.252h0a3.7,3.7,0,0,1-.877.148,1.29,1.29,0,0,1-.757-.186,1.031,1.031,0,0,1-.167-.133,1.189,1.189,0,0,1-.167.133,1.3,1.3,0,0,1-.757.186,3.721,3.721,0,0,1-.877-.148h0a7.657,7.657,0,0,1-.906-.252,8.34,8.34,0,0,1-.855-.344.241.241,0,0,1-.12-.338.289.289,0,0,1,.2-.136h0l.379-.057h.009a3.786,3.786,0,0,0,.972-.224c.095-.038.186-.079.281-.123.537-.249,1.124-.521,1.711-.054a1.35,1.35,0,0,1,.139.126,1.351,1.351,0,0,1,.139-.126c.587-.467,1.174-.2,1.711.054.095.044.186.085.281.123a3.756,3.756,0,0,0,.972.224h.009c.11.016.23.032.379.057h0a.271.271,0,0,1,.2.136.245.245,0,0,1-.12.338c-.294.129-.578.246-.868.344ZM15.5,16.934a.278.278,0,1,1,.357-.426.641.641,0,0,0,.4.18.66.66,0,0,0,.42-.18.279.279,0,0,1,.391.038.276.276,0,0,1-.038.391,1.174,1.174,0,0,1-.78.306,1.188,1.188,0,0,1-.751-.309Zm-.874,3.677a.294.294,0,1,1,.275-.521,2.833,2.833,0,0,0,1.332.363,2.685,2.685,0,0,0,1.313-.36.293.293,0,0,1,.281.514,3.257,3.257,0,0,1-1.594.432,3.4,3.4,0,0,1-1.606-.429ZM8.707,16.575V13.939c-.12-.508-.344-.66-.593-.707-.679-.1-.615,3.185.593,3.342Z" fill="#686e74" fill-rule="evenodd"/>
  </g>
</svg>
