<svg xmlns="http://www.w3.org/2000/svg" width="52.814" height="49.21" viewBox="0 0 52.814 49.21">
  <g id="Group_35492" data-name="Group 35492" transform="translate(1 1.004)">
    <path id="Path_32159" data-name="Path 32159" d="M39.191.015A2.761,2.761,0,0,0,37.1.626a2.721,2.721,0,0,0-1.034,1.914L35.415,8.7a2.826,2.826,0,0,0,2.526,3.126l2.324.244a11.358,11.358,0,0,1-.8,1.708,4.722,4.722,0,0,1-1.406,1.48,9.97,9.97,0,0,0,3.089-.972A8.671,8.671,0,0,0,43.6,12.423l2.58.273a2.8,2.8,0,0,0,2.092-.612A2.721,2.721,0,0,0,49.3,10.17l.649-6.157a2.761,2.761,0,0,0-.612-2.092A2.721,2.721,0,0,0,47.427.887L39.191.015ZM16.618,23.546a38.55,38.55,0,0,1,18.007,0,2.263,2.263,0,0,1,1.385.844,2.318,2.318,0,0,1,.31.409l4.085,5.71,2.5-6.852a2.168,2.168,0,0,1,.976-1.336v-.008l2.791-2.088a.678.678,0,0,1,.947.136h0a.678.678,0,0,1-.136.947l-1.629,1.22c.145.058.294.12.442.19l1.782-1.166a.522.522,0,0,1,.724.153h0a.525.525,0,0,1-.149.724l-.914.6h2.328a.746.746,0,0,1,.744.744h0a.746.746,0,0,1-.744.744H48.052a5.586,5.586,0,0,1-.331.844l-4.337,12.5h0a2.544,2.544,0,0,1-4.594.438l-3.9-6L32.959,42.86c-.426,2.344-1.832,4.346-4.069,4.346H22.353c-2.237,0-3.643-2-4.073-4.346L16.263,31.775,12.028,38.3a2.544,2.544,0,0,1-4.594-.438h0l-4.338-12.5a6.06,6.06,0,0,1-.331-.844H.744A.746.746,0,0,1,0,23.769H0a.746.746,0,0,1,.744-.744H3.072l-.914-.6a.525.525,0,0,1-.149-.724h0a.529.529,0,0,1,.724-.153l1.782,1.166c.149-.066.294-.132.442-.19l-1.629-1.22a.674.674,0,0,1-.136-.943h0a.678.678,0,0,1,.947-.136L6.93,22.318v.008a2.168,2.168,0,0,1,.976,1.336l2.5,6.852,4.085-5.71a2.713,2.713,0,0,1,2.088-1.245l.037-.012ZM25.26,4.166A8.361,8.361,0,1,1,16.9,12.527,8.359,8.359,0,0,1,25.26,4.166ZM41.68,8.152l1.344.215-.19,1.187L41.49,9.339l.19-1.187Zm1.447-.434L41.787,7.5c.128-1.65,0-2.6.26-4.226a1.1,1.1,0,0,1,2.175.351c-.269,1.625-.7,2.485-1.1,4.089Z" transform="translate(0 0)" fill="rgba(255,255,255,0)" stroke="#fff" stroke-width="2"/>
  </g>
</svg>
