<svg xmlns="http://www.w3.org/2000/svg" width="48.411" height="46.55" viewBox="0 0 48.411 46.55">
  <g id="headphones_solid" transform="translate(-2.16 -3.6)">
    <g id="Group_35482" data-name="Group 35482" transform="translate(2.16 3.6)">
      <path id="Path_32151" data-name="Path 32151" d="M4.643,25.323c4.641,0,6.961,0,8.689,1a7.447,7.447,0,0,1,2.726,2.726c1,1.728,1,4.049,1,8.689V42.7a7.448,7.448,0,0,1-14.9,0V25.323C2.16,13.126,13.21,3.6,26.366,3.6s24.206,9.526,24.206,21.723V42.7a7.448,7.448,0,0,1-14.9,0V37.736c0-4.641,0-6.961,1-8.689A7.446,7.446,0,0,1,39.4,26.321c1.728-1,4.049-1,8.689-1H46.848c0-9.741-8.958-18-20.482-18s-20.482,8.259-20.482,18Z" transform="translate(-2.16 -3.6)" fill="#fff"/>
    </g>
  </g>
</svg>
