<svg xmlns="http://www.w3.org/2000/svg" width="47.902" height="47.901" viewBox="0 0 47.902 47.901">
  <g id="logo-whatsapp" transform="translate(-3 -3)">
    <path id="Path_2" data-name="Path 2" d="M43.922,9.96A23.874,23.874,0,0,0,3.2,26.736,23.588,23.588,0,0,0,6.384,38.6L3,50.9l12.644-3.3a23.911,23.911,0,0,0,11.4,2.887h.009A23.829,23.829,0,0,0,50.9,26.751a23.542,23.542,0,0,0-6.979-16.79ZM27.051,46.481h-.009a19.861,19.861,0,0,1-10.089-2.75L16.23,43.3l-7.5,1.959,2-7.28-.471-.748a19.786,19.786,0,1,1,16.8,9.247ZM37.924,31.705c-.6-.3-3.528-1.732-4.072-1.93s-.944-.3-1.341.3S30.97,32,30.625,32.4s-.7.445-1.29.148A16.3,16.3,0,0,1,24.542,29.6a17.886,17.886,0,0,1-3.314-4.108c-.347-.594-.036-.915.261-1.21.268-.266.6-.693.894-1.039a4.014,4.014,0,0,0,.6-.99,1.089,1.089,0,0,0-.049-1.039c-.149-.3-1.341-3.216-1.837-4.4-.484-1.157-.975-1-1.341-1.018-.347-.017-.748-.022-1.143-.022a2.2,2.2,0,0,0-1.589.742,6.646,6.646,0,0,0-2.086,4.948c0,2.917,2.138,5.74,2.433,6.135s4.2,6.388,10.178,8.958a34.549,34.549,0,0,0,3.4,1.249,8.2,8.2,0,0,0,3.753.235c1.145-.17,3.528-1.434,4.023-2.821a4.95,4.95,0,0,0,.347-2.819c-.149-.247-.546-.4-1.143-.693Z" transform="translate(0 0)" fill="#fff" fill-rule="evenodd"/>
  </g>
</svg>
