<svg xmlns="http://www.w3.org/2000/svg" width="24.499" height="25.556" viewBox="0 0 24.499 25.556">
  <g id="Group_161677" data-name="Group 161677" transform="translate(-1746.083 -448.771)">
    <path id="Path_38086" data-name="Path 38086" d="M87.012,32.446H65.82a10.665,10.665,0,0,1,21.193,0Z" transform="translate(1681.919 425.774)" fill="#686e74"/>
    <path id="Path_38087" data-name="Path 38087" d="M48.395,279.181l21.784-.021c2.056.385,1.785,2.925-.263,3.063h-21.1C46.884,282.1,46.43,279.731,48.395,279.181Z" transform="translate(1698.973 192.104)" fill="#686e74"/>
    <path id="Path_38088" data-name="Path 38088" d="M70.853,141.2H47.559a.853.853,0,0,1,.3-1.667l22.685.005a.853.853,0,0,1,.307,1.663Z" transform="translate(1699.13 319.474)" fill="#686e74"/>
    <path id="Path_38089" data-name="Path 38089" d="M65.693,164.261a1.613,1.613,0,0,1,2.036,1.513,43.706,43.706,0,0,1-.022,6.629,1.574,1.574,0,0,1-3.129-.064,47.138,47.138,0,0,1,.008-6.82,1.774,1.774,0,0,1,1.107-1.257Z" transform="translate(1683.162 296.956)" fill="#686e74"/>
    <path id="Path_38090" data-name="Path 38090" d="M273.695,165.733V172.3a1.573,1.573,0,0,1-3.02.523,46.944,46.944,0,0,1-.136-7.049,1.579,1.579,0,0,1,3.156-.04Z" transform="translate(1495.237 296.952)" fill="#686e74"/>
    <path id="Path_38091" data-name="Path 38091" d="M134.64,172.4v-6.829c.234-1.732,2.944-1.961,3.157.39a45.147,45.147,0,0,1,0,6.223,1.584,1.584,0,0,1-3.156.215Z" transform="translate(1619.142 296.934)" fill="#686e74"/>
    <path id="Path_38092" data-name="Path 38092" d="M204.453,165.582v6.829a1.584,1.584,0,0,1-3.156-.215,44.873,44.873,0,0,1,0-6.223c.213-2.352,2.922-2.121,3.157-.39Z" transform="translate(1558.437 296.928)" fill="#686e74"/>
    <path id="Path_38093" data-name="Path 38093" d="M133.367,186.289a47.649,47.649,0,0,1,0-6.829Z" transform="translate(1620.415 283.05)" fill="#686e74"/>
    <path id="Path_38094" data-name="Path 38094" d="M238.36,186.289V179.46A47.642,47.642,0,0,1,238.36,186.289Z" transform="translate(1524.53 283.05)" fill="#686e74"/>
    <path id="Path_38095" data-name="Path 38095" d="M307.17,188.025V181.46A45.509,45.509,0,0,1,307.17,188.025Z" transform="translate(1461.762 281.225)" fill="#686e74"/>
  </g>
</svg>
