<svg xmlns="http://www.w3.org/2000/svg" width="38.169" height="29.096" viewBox="0 0 38.169 29.096">
  <g id="Group_161696" data-name="Group 161696" transform="translate(6106 5296)">
    <path id="Path_38107" data-name="Path 38107" d="M33.83,20.977a6.264,6.264,0,0,0-.611.624c-.214-.058-.429-.114-.645-.186a11.133,11.133,0,0,1,1.256-.438Zm-2.419,1a12.418,12.418,0,0,0,1.2.419,17.578,17.578,0,0,0-2.576,9.433h-4.7a11.773,11.773,0,0,1,6.077-9.851ZM25.328,32.758h4.7a17.668,17.668,0,0,0,2.576,9.433c-.41.119-.811.263-1.2.419a11.8,11.8,0,0,1-6.077-9.851Zm7.257,10.42c.211-.071.425-.134.645-.19a5.508,5.508,0,0,0,.606.624,12.2,12.2,0,0,1-1.251-.434Zm4.046.859a4.16,4.16,0,0,1-2.361-1.293,15.813,15.813,0,0,1,2.361-.263Zm0-2.486a15.837,15.837,0,0,0-3.053.386,16.391,16.391,0,0,1-2.609-9.179h5.664Zm0-9.723H30.967a16.449,16.449,0,0,1,2.609-9.179,15.512,15.512,0,0,0,3.053.382Zm0-9.725a14.865,14.865,0,0,1-2.361-.263,4.164,4.164,0,0,1,2.361-1.293ZM48.87,31.828h-4.7A17.645,17.645,0,0,0,41.59,22.4a11.912,11.912,0,0,0,1.2-.419,11.807,11.807,0,0,1,6.077,9.851ZM41.617,21.417c-.214.071-.429.129-.645.186a6.075,6.075,0,0,0-.611-.624,9.606,9.606,0,0,1,1.256.438Zm-4.05-.868a4.16,4.16,0,0,1,2.361,1.293,15.812,15.812,0,0,1-2.361.263Zm0,2.481a15.46,15.46,0,0,0,3.053-.382,16.391,16.391,0,0,1,2.609,9.179l-5.662,0Zm0,9.729H43.23a16.449,16.449,0,0,1-2.609,9.179,16.038,16.038,0,0,0-3.053-.382Zm0,11.279V42.482a14.938,14.938,0,0,1,2.361.263,4.2,4.2,0,0,1-2.361,1.293Zm2.8-.431a6.262,6.262,0,0,0,.611-.624c.214.058.429.114.645.186A10.129,10.129,0,0,1,40.368,43.607Zm2.419-1a12.549,12.549,0,0,0-1.2-.419,17.608,17.608,0,0,0,2.576-9.433h4.7a11.778,11.778,0,0,1-6.077,9.851Z" transform="translate(-6124.014 -5316.547)" fill="#686e74"/>
    <path id="Path_38108" data-name="Path 38108" d="M48.169,62.1c0,3.66-8.383,6.523-19.084,6.523S10,65.757,10,62.1c0-2.141,2.781-4.046,7.662-5.258a9.563,9.563,0,0,0,.453.85c-4.438,1.068-7.181,2.753-7.181,4.413,0,2.7,7.295,5.591,18.155,5.591S47.243,64.8,47.243,62.1c0-1.661-2.749-3.34-7.181-4.413.162-.276.315-.559.453-.85,4.874,1.211,7.654,3.116,7.654,5.258Z" transform="translate(-6116 -5335.524)" fill="#686e74"/>
  </g>
</svg>
