<svg xmlns="http://www.w3.org/2000/svg" width="40.399" height="49.873" viewBox="0 0 40.399 49.873">
  <path id="Path_32178" data-name="Path 32178" d="M37.554,14.71C35.308,5.084,26.688.75,19.115.75h-.021C11.543.75,2.9,5.063.656,14.689-1.847,25.44,4.912,36.919,11.03,42.648c2.168,2.044,5.046,5.574,8.064,5.575,2.909,0,5.84-3.45,8.085-5.575C33.3,36.919,40.056,25.461,37.554,14.71ZM19.115,25.149a6.894,6.894,0,0,1-2.578-.5,6.752,6.752,0,0,1-2.186-1.423A6.556,6.556,0,0,1,12.89,21.1a6.407,6.407,0,0,1,0-5.023,6.555,6.555,0,0,1,1.461-2.129,6.753,6.753,0,0,1,2.186-1.423,6.878,6.878,0,0,1,7.343,1.423,6.444,6.444,0,0,1,0,9.282A6.831,6.831,0,0,1,19.115,25.149Z" transform="translate(1.095 0.45)" fill="rgba(255,255,255,0)" stroke="#fff" stroke-linecap="round" stroke-width="2.4"/>
</svg>
