<svg xmlns="http://www.w3.org/2000/svg" width="48.19" height="44.766" viewBox="0 0 48.19 44.766">
  <path id="Path_32180" data-name="Path 32180" d="M13.428,17.025a1.491,1.491,0,0,1,.973-1.078c-.149-2.824.314-7.263-2.573-8.137C17.553.75,24.15-3.108,29.1,3.182c5.69.3,8.13,8.937,4.231,13.2a1.753,1.753,0,0,1,.882.184,1.392,1.392,0,0,1,.678.827,2.5,2.5,0,0,1-.051,1.435l-.726,2.09a1.522,1.522,0,0,1-.475.784,1.373,1.373,0,0,1-1.008.247,1.875,1.875,0,0,1-.208-.024c-.047,2.353-1.2,3.435-2.706,4.851l-.576.549a7.006,7.006,0,0,1-4.886,2.184,7.723,7.723,0,0,1-5.067-2.177l-.569-.49c-1.475-1.271-2.706-2.333-2.941-4.922h-.133a1.8,1.8,0,0,1-.867-.231,2.353,2.353,0,0,1-.953-1.177,5.322,5.322,0,0,1-.392-1.741v-.886a5.232,5.232,0,0,1,.047-.749A.545.545,0,0,1,13.42,17Zm4.141,12.432,3.608,9.487L23,33.771l-.89-.973a1.473,1.473,0,0,1-.267-1.537c.482-.953,1.478-.784,2.412-.784s2.184-.184,2.49,1.035a1.628,1.628,0,0,1-.314,1.278l-.89.98,1.816,5.173,3.267-9.487c2.353,2.122,10.659,2.549,13.255,4A6.867,6.867,0,0,1,46.037,35.3c1.486,1.961,1.612,4.741,2.153,7.145A2.383,2.383,0,0,1,45.7,44.775H2.494A2.388,2.388,0,0,1,0,42.446c.541-2.439.671-5.184,2.153-7.145a6.726,6.726,0,0,1,2.161-1.847C7.506,31.677,14.957,31.81,17.569,29.457ZM28.338,8.476c-2.894,2.937-6.518,2.031-9.071,3.188-.149.09-.3.192-.459.3a4.141,4.141,0,0,0-1.639,2.047,5.145,5.145,0,0,0-.067,2.8.584.584,0,0,1,0,.337.569.569,0,0,1-.729.341l-.165-.063v.086l-.29-.192h-.055c-.675-.235-1.149-.345-1.329.078,0,.137-.027.345-.031.565v.784A4.129,4.129,0,0,0,14.8,20.1a1.286,1.286,0,0,0,.471.62.7.7,0,0,0,.322.082,1.588,1.588,0,0,0,.463-.078.612.612,0,0,1,.169-.031.573.573,0,0,1,.58.553c.063,2.573,1.2,3.553,2.592,4.749l.576.5a6.544,6.544,0,0,0,4.314,1.878A5.691,5.691,0,0,0,28.342,26.5c.208-.2.392-.392.588-.557,1.455-1.369,2.526-2.377,2.322-4.828a.565.565,0,0,1,.878-.522,1.647,1.647,0,0,0,.282.149h0a.855.855,0,0,0,.247.055,1,1,0,0,0,.282-.008,1.153,1.153,0,0,0,.11-.263l.722-2.047a1.4,1.4,0,0,0,.043-.757.275.275,0,0,0-.129-.173.7.7,0,0,0-.357-.047,2,2,0,0,0-1.016.427.568.568,0,0,1-.9-.549c.533-3.137.29-5.157-.392-6.541a5.565,5.565,0,0,0-2.518-2.5l-.161.122Zm-5.984,6.086c.569.212.69.69.373.871s-.851-.1-1.216-.22a3.6,3.6,0,0,0-2.918.173,4.58,4.58,0,0,0-.671.533,2.267,2.267,0,0,1,.392-.82c.827-1.047,2.914-1.106,4.024-.537Zm3.6,0c-.569.212-.69.69-.392.871s.851-.1,1.216-.22a3.6,3.6,0,0,1,2.918.173,4.58,4.58,0,0,1,.671.533,2.267,2.267,0,0,0-.392-.82c-.827-1.047-2.914-1.106-4.024-.537ZM19.373,16.61a.231.231,0,0,1-.3-.165.278.278,0,0,1,.149-.341,3.922,3.922,0,0,1,2.847,0,.271.271,0,0,1,.153.333.224.224,0,0,1-.29.173q-.235-.082-.471-.141a.682.682,0,0,1,.024.176.663.663,0,1,1-1.322,0,.651.651,0,0,1,.051-.251,3.435,3.435,0,0,0-.839.216Zm7.651-.2a.733.733,0,0,0-.043.231.663.663,0,1,0,1.322,0,.612.612,0,0,0-.071-.29,4.082,4.082,0,0,1,.871.192.231.231,0,0,0,.29-.184.278.278,0,0,0-.161-.333,4.639,4.639,0,0,0-1.424-.231,4.365,4.365,0,0,0-1.408.235.278.278,0,0,0-.161.333.235.235,0,0,0,.29.18A4.028,4.028,0,0,1,27.024,16.414Zm-3.765,5.722a.369.369,0,0,1-.047-.514.365.365,0,0,1,.514-.047.824.824,0,0,0,.522.231.847.847,0,0,0,.545-.235.357.357,0,0,1,.506.047.361.361,0,0,1-.047.51,1.569,1.569,0,0,1-1.016.392,1.486,1.486,0,0,1-.976-.392Zm-1.133,2.647a.38.38,0,1,1,.357-.671,3.663,3.663,0,0,0,1.733.471,3.53,3.53,0,0,0,1.71-.467.392.392,0,1,1,.369.667,4.173,4.173,0,0,1-2.075.561,4.51,4.51,0,0,1-2.094-.561Z" transform="translate(0 -0.009)" fill="#fff"/>
</svg>
