<svg xmlns="http://www.w3.org/2000/svg" width="22.3" height="27.667" viewBox="0 0 22.3 27.667">
  <g id="Duty_officer" transform="translate(-36.5 -10)">
    <g id="Group_161644" data-name="Group 161644" transform="translate(36.5 10)">
      <path id="Path_38013" data-name="Path 38013" d="M58.394,29.7l-.8-2.344c-1.157-1.91-2.959-4.383-5.6-4.922-.779,2.953-4.2,3.75-4.274,6.8-1.132-1.57-.207-1.535-2.2-3.457-.365-.352-2.533-3.34-2.606-3.34-2.63,0-6.4,5.707-6.4,8.906v3.515c0,1.922,1.315,2.812,3.47,2.812h1.863V30.636h.536v7.031H53.06V30.636h.268v7.031h1.339c2.18,0,3.957-.375,4.018-2.332.037-1.652.365-4.453-.292-5.636ZM46.375,23.124l1.072.234c-.5.656-1.072.809-1.072,1.875,0,1.2.743,1.113,1.072,2.344A7.241,7.241,0,0,0,48.786,25.7v-.937c0-.586-.67-.879-1.047-1.348l1.047-.281V22.2h-2.4v.926Zm6.941-7.734v-.7C53.243,11.664,50.99,10,47.435,10c-3.142,0-5.613,2.039-5.613,4.687v1.172a5.9,5.9,0,0,0,5.613,5.625h.8c3.081,0,5.078-3.129,5.078-6.093Z" transform="translate(-36.5 -10)" fill="#686e74"/>
    </g>
  </g>
</svg>
