<svg xmlns="http://www.w3.org/2000/svg" xmlns:xlink="http://www.w3.org/1999/xlink" width="24" height="24.103" viewBox="0 0 24 24.103">
  <defs>
    <linearGradient id="linear-gradient" x1="0.5" y1="1" x2="0.5" gradientUnits="objectBoundingBox">
      <stop offset="0" stop-color="#20b038"/>
      <stop offset="1" stop-color="#60d66a"/>
    </linearGradient>
  </defs>
  <g id="whatsapp" transform="translate(-0.297 -0.172)">
    <path id="Path_38157" data-name="Path 38157" d="M.3,24.274l1.7-6.188A11.952,11.952,0,0,1,20.8,3.672a11.951,11.951,0,0,1-8.456,20.4H12.34a11.956,11.956,0,0,1-5.712-1.455Zm6.629-3.827.361.218a9.957,9.957,0,0,0,5.053,1.386h.006A9.929,9.929,0,1,0,3.929,17.4l.235.378-1,3.661Z" fill="rgba(0,0,0,0.24)"/>
    <path id="Path_38158" data-name="Path 38158" d="M5.781,28.02l1.618-5.9a11.389,11.389,0,1,1,9.868,5.7h-.006a11.4,11.4,0,0,1-5.443-1.386Z" transform="translate(-4.942 -4.384)" fill="url(#linear-gradient)"/>
    <g id="Group_161805" data-name="Group 161805" transform="translate(0.426 0.245)">
      <path id="Path_38159" data-name="Path 38159" d="M1.6,24.719l1.675-6.111A11.8,11.8,0,0,1,21.853,4.372,11.8,11.8,0,0,1,13.5,24.515H13.5a11.808,11.808,0,0,1-5.641-1.437Zm6.546-3.78.356.215a9.834,9.834,0,0,0,4.99,1.369H13.5A9.806,9.806,0,1,0,5.19,17.929l.232.373-.99,3.616Z" transform="translate(-1.603 -0.915)" fill="#fff"/>
      <path id="Path_38160" data-name="Path 38160" d="M64.4,65.595c-.221-.492-.453-.5-.662-.509-.17-.006-.368-.006-.566-.006a1.085,1.085,0,0,0-.786.368,3.3,3.3,0,0,0-1.03,2.461,5.751,5.751,0,0,0,1.205,3.05A12.117,12.117,0,0,0,67.6,75.412c2.49.985,3,.786,3.536.736a2.984,2.984,0,0,0,1.992-1.4,2.483,2.483,0,0,0,.17-1.4c-.074-.124-.272-.2-.566-.345s-1.743-.86-2.014-.962-.47-.147-.662.147-.764.956-.934,1.154-.345.221-.639.074a8.01,8.01,0,0,1-2.371-1.465A8.814,8.814,0,0,1,64.471,69.9c-.17-.294-.017-.453.13-.6.13-.13.294-.345.441-.515a1.894,1.894,0,0,0,.294-.492.546.546,0,0,0-.023-.515c-.074-.147-.651-1.6-.911-2.184Z" transform="translate(-55.452 -58.737)" fill="#fff"/>
    </g>
  </g>
</svg>
