<svg xmlns="http://www.w3.org/2000/svg" width="23.216" height="25.696" viewBox="0 0 23.216 25.696">
  <path id="Path_37890" data-name="Path 37890" d="M99.277,76.978a3.671,3.671,0,0,0-5.146,0,3.58,3.58,0,0,0,.993,5.785,3.641,3.641,0,0,0,5.219-3.242,3.56,3.56,0,0,0-1.066-2.543Zm7.825,16.13H86.313a1.211,1.211,0,0,0-1.213,1.2v6.115a1.211,1.211,0,0,0,1.213,1.2H107.1a1.211,1.211,0,0,0,1.213-1.2V94.307a1.211,1.211,0,0,0-1.213-1.2Zm-17.463-.659H92.1V87.263a.333.333,0,0,1,.667,0v5.192h7.885V87.263a.333.333,0,0,1,.667,0v5.192h2.46V86.921a3.553,3.553,0,0,0-3.559-3.525H98.5a4.329,4.329,0,0,1-3.586,0H93.205a3.558,3.558,0,0,0-3.566,3.525Zm.953,3.314a2.3,2.3,0,0,0-3.233,0,2.241,2.241,0,0,0,0,3.2,2.3,2.3,0,0,0,3.233,0,2.241,2.241,0,0,0,0-3.2Zm-1.62-1.318a2.919,2.919,0,1,1-2.953,2.919,2.933,2.933,0,0,1,2.953-2.919Zm9.352,1.318a2.3,2.3,0,0,0-3.233,0,2.241,2.241,0,0,0,0,3.2,2.3,2.3,0,0,0,3.233,0,2.241,2.241,0,0,0,0-3.2ZM96.7,94.445a2.919,2.919,0,1,1-2.953,2.919A2.933,2.933,0,0,1,96.7,94.445Zm9.925.962.826-.837a.328.328,0,0,1,.473.455l-.906.922a2.958,2.958,0,1,1-2.58-1.5,2.968,2.968,0,0,1,2.186.962Zm-3.746,1.483a.329.329,0,0,1,0-.468.337.337,0,0,1,.467,0l1.146,1.14,1.666-1.693a2.316,2.316,0,0,0-3.339-.105,2.241,2.241,0,0,0,0,3.2,2.3,2.3,0,0,0,3.233,0,2.251,2.251,0,0,0,.473-2.517l-1.793,1.825a.339.339,0,0,1-.473,0Z" transform="translate(-85.1 -75.925)" fill="#378c77"/>
</svg>
