<svg width="24" height="24" viewBox="0 0 24 24" fill="none" xmlns="http://www.w3.org/2000/svg">
<path d="M22.1651 20.4344C20.7938 22.723 18.3768 24.0001 15.8912 24.0001C14.7513 24.0001 13.6028 23.7344 12.5315 23.1601C10.7916 22.243 8.21174 20.6315 5.78619 18.2144C3.3692 15.7887 1.75788 13.2087 0.840795 11.4688C-0.967658 8.06593 0.232263 3.84025 3.56633 1.83455C3.94345 1.61169 4.43199 1.70598 4.68912 2.0574L8.42602 7.03736C8.64029 7.32022 8.65743 7.70593 8.46887 8.00593L7.27752 9.9002C7.3718 10.5773 7.7832 12.6087 9.59165 14.4087C11.3915 16.2087 13.4143 16.6287 14.0999 16.723L15.9941 15.5316C16.2941 15.343 16.6798 15.3602 16.9626 15.5744L21.9423 19.3116C22.2937 19.5687 22.388 20.0573 22.1651 20.4344Z" fill="white"/>
<path d="M17.665 8.46078e-05C15.9423 -0.00848675 14.2881 0.634365 13.0539 1.8515C11.8197 3.06863 11.1426 4.69719 11.1426 6.4286V12C11.1426 12.36 11.3654 12.6857 11.7083 12.8057C12.0511 12.9257 12.4282 12.8228 12.6596 12.5486C12.6682 12.54 12.7625 12.42 12.9167 12.2657C13.4567 11.7171 14.3309 11.6657 15.0423 12.1457C16.0708 12.84 17.4165 12.8571 17.5707 12.8571C19.302 12.8571 20.9305 12.18 22.1476 10.9457C23.3646 9.71144 24.0246 8.07431 23.9989 6.33432C23.9475 2.88863 21.1105 0.0515128 17.665 8.46078e-05ZM18.4278 8.78573C18.4278 9.25715 18.0421 9.64286 17.5707 9.64286C17.0993 9.64286 16.7136 9.25715 16.7136 8.78573V6.21432C16.7136 5.7429 17.0993 5.35718 17.5707 5.35718C18.0421 5.35718 18.4278 5.7429 18.4278 6.21432V8.78573ZM17.5707 4.59433C17.0993 4.59433 16.7136 4.20862 16.7136 3.7372C16.7136 3.26577 17.0993 2.88006 17.5707 2.88006C18.0421 2.88006 18.4278 3.26577 18.4278 3.7372C18.4278 4.20862 18.0421 4.59433 17.5707 4.59433Z" fill="white"/>
</svg>
