<svg width="26" height="26" viewBox="0 0 26 26" fill="none" xmlns="http://www.w3.org/2000/svg">
<path fill-rule="evenodd" clip-rule="evenodd" d="M21.2564 15.0994L20.4651 14.3095L19.7178 15.0568L20.5091 15.8467L10.5622 25.7936C10.287 26.0688 9.84107 26.0688 9.56586 25.7936L6.92907 23.1568C6.65246 22.8816 6.65109 22.4302 6.87403 22.1109C7.36806 21.4022 7.96398 20.1347 6.91394 19.0847C5.80749 17.9783 4.26204 18.5095 3.47348 18.9017C3.16797 19.053 2.78952 19.0173 2.54868 18.7778L0.206429 16.4342C-0.0688085 16.159 -0.0688085 15.7131 0.206429 15.4379L10.152 5.49098L10.8098 6.1488L11.5571 5.40153L10.8992 4.74372L15.438 0.206426C15.7132 -0.0688098 16.1591 -0.0688098 16.4343 0.206426L18.7559 2.52802C19.0559 2.82803 19.0284 3.32894 18.7422 3.64411C18.0155 4.44503 17.0315 5.99875 18.5165 7.48349C20.0013 8.96837 21.5551 7.98443 22.3559 7.25642C22.6696 6.97155 23.1719 6.94403 23.472 7.24404L25.7936 9.56563C26.0688 9.84087 26.0688 10.2868 25.7936 10.562L21.2564 15.0994ZM19.7233 13.5664L17.743 11.5874L16.9957 12.3347L18.9761 14.3136L19.7233 13.5664ZM17.0012 10.8456L15.0223 8.86532L14.275 9.61259L16.254 11.5929L17.0012 10.8456ZM14.2791 8.12355L12.3002 6.14323L11.5529 6.8905L13.5318 8.87082L14.2791 8.12355Z" fill="white"/>
</svg>
