<svg width="24" height="18" viewBox="0 0 24 18" fill="none" xmlns="http://www.w3.org/2000/svg">
<path fill-rule="evenodd" clip-rule="evenodd" d="M2.90746 0H11.9761C12.3138 0 12.6333 0.0653735 12.9328 0.194167C13.2313 0.322961 13.4982 0.512243 13.7354 0.761053L14.3659 1.42553C14.4989 1.56603 14.6434 1.66946 14.7983 1.73678C14.9524 1.80313 15.1265 1.83631 15.3198 1.83631C15.513 1.83631 15.6871 1.80216 15.8412 1.73678C15.9961 1.66946 16.1406 1.56603 16.2736 1.42553L16.9041 0.761053C17.1404 0.512245 17.4083 0.322956 17.7067 0.194167C18.0062 0.0653735 18.3257 0 18.6634 0H21.0925C21.8924 0 22.6204 0.333687 23.1466 0.870348C23.6737 1.40796 24 2.14952 24 2.96521V15.0348C24 15.8505 23.6728 16.593 23.1466 17.1297C22.6195 17.6673 21.8924 18 21.0925 18H18.6634C18.3257 18 18.0062 17.9346 17.7067 17.8058C17.4082 17.677 17.1413 17.4878 16.9041 17.2389L16.2736 16.5745C16.1406 16.434 15.9961 16.3305 15.8412 16.2632C15.6871 16.1969 15.513 16.1637 15.3198 16.1637C15.1265 16.1637 14.9524 16.1978 14.7983 16.2632C14.6434 16.3305 14.4989 16.434 14.3659 16.5745L13.7354 17.2389C13.4991 17.4878 13.2313 17.677 12.9328 17.8058C12.6333 17.9346 12.3138 18 11.9761 18H2.90746C2.10765 18 1.37958 17.6663 0.853396 17.1297C0.326257 16.592 0 15.8505 0 15.0348V2.96521C0 2.14952 0.327187 1.40698 0.853396 0.870348C1.38053 0.332738 2.10765 0 2.90746 0ZM5.10791 7.32967C4.79698 7.32967 4.54535 7.07307 4.54535 6.75594C4.54535 6.43881 4.79696 6.18221 5.10791 6.18221H13.5872C13.8982 6.18221 14.1498 6.43881 14.1498 6.75594C14.1498 7.07307 13.8982 7.32967 13.5872 7.32967H5.10791ZM8.17503 11.5985H5.10791C4.79698 11.5985 4.54535 11.3419 4.54535 11.0248C4.54535 10.7076 4.79696 10.451 5.10791 10.451H8.17503C8.48595 10.451 8.73758 10.7076 8.73758 11.0248C8.73758 11.3419 8.48598 11.5985 8.17503 11.5985Z" fill="white"/>
</svg>
