<svg width="30" height="24" viewBox="0 0 30 24" fill="none" xmlns="http://www.w3.org/2000/svg">
<path d="M29.7744 14.6899C29.4521 14.3292 28.9881 14.3379 28.2603 14.7472C27.9721 14.9101 27.699 15.1005 27.3616 15.3182C27.3381 15.3344 27.3088 15.3058 27.3217 15.2796C27.501 14.8554 27.6815 14.5046 27.3873 14.1475C27.0545 13.7432 26.6256 13.7868 26.2085 13.9497C25.8405 14.0953 24.5749 14.8007 24.1789 15.0445C24.1601 15.0569 24.1367 15.042 24.1367 15.0196C24.1414 14.6178 23.9 14.4038 23.6515 14.2893C23.3949 14.1687 23.1031 14.1624 22.8359 14.252C22.7246 14.2893 22.6051 14.3316 22.5242 14.369C21.5047 14.828 20.4876 15.2945 19.4703 15.7623C19.3543 15.8171 19.3731 15.9975 19.4961 16.0248C19.584 16.0447 19.6637 16.0621 19.7422 16.0821C20.5578 16.2861 21.3699 16.4901 22.0132 17.1246C22.6847 17.7876 22.7421 18.4794 22.0308 19.0989C21.5292 19.5356 20.9257 19.9113 20.3094 20.119C19.1235 20.5209 17.879 20.4923 16.6522 20.3168C15.1757 20.1053 13.7578 19.7023 12.6105 18.61C12.3597 18.3736 12.1523 18.085 11.9238 17.8225C11.8558 17.7428 11.9355 17.6222 12.0281 17.6595C12.7148 17.9332 17.5592 19.5057 19.3754 19.2146C19.4105 19.2083 20.055 19.0578 20.2542 18.9583C20.8776 18.6473 21.037 18.284 21.0159 17.9705C20.996 17.6595 20.7277 17.3485 20.4429 17.2763C20.1792 17.2128 19.8922 17.2104 19.6285 17.1519C18.6746 16.9441 17.7512 16.5995 16.8735 16.1541C15.9946 15.7075 14.0775 14.3353 13.9252 14.2258C11.5745 12.5165 5.54655 12.5911 2.95105 15.5321C2.64521 15.9252 2.25382 16.2562 1.85186 16.5336C1.3339 16.8944 0.783156 17.2029 0.227698 17.5288C0.058955 17.6284 -0.0289325 17.8299 0.00856601 18.0302C0.329643 19.7109 0.849942 22.3969 1.09836 23.6285C1.16047 23.9432 1.49795 24.0987 1.75459 23.932C1.77685 23.9159 1.80029 23.9034 1.82255 23.8897C2.69675 23.3411 3.54748 22.7427 4.45564 22.2662C6.52978 21.1789 8.61107 21.0122 10.8139 22.0398C12.3455 22.7539 14.0013 23.1806 15.6218 23.6571C16.6542 23.9581 17.744 23.9643 18.7729 23.6496C19.7818 23.3398 26.3662 19.2182 28.464 17.3523C28.839 17.0176 29.2796 16.6817 29.5796 16.2649C30.0975 15.5471 30.106 15.0632 29.7744 14.6899Z" fill="white"/>
<path d="M17.8246 0C14.4804 0 11.7676 2.87879 11.7676 6.43047C11.7676 9.98091 14.4792 12.8609 17.8246 12.8609C21.1689 12.8609 23.8829 9.98216 23.8829 6.43047C23.8817 2.88003 21.1689 0 17.8246 0ZM17.7567 2.53044C18.2512 2.53044 18.652 2.95714 18.652 3.48216C18.652 4.00714 18.2512 4.43264 17.7567 4.43264C17.2622 4.43264 16.8602 4.00717 16.8602 3.48216C16.8602 2.95717 17.2621 2.53044 17.7567 2.53044ZM19.6234 10.3307H16.0259V9.51459C16.2345 9.50215 16.4455 9.48847 16.6587 9.47603C16.9224 9.45861 17.097 9.32425 17.1005 9.03563C17.1123 8.18592 17.1158 7.33624 17.1064 6.48529C17.1029 6.18422 16.9177 6.04241 16.6412 6.03744C16.4443 6.03371 16.2474 6.03619 16.0295 6.03619V5.18276C16.1045 5.17529 17.6466 5.16658 18.3309 5.15539C18.5454 5.15166 18.6052 5.22381 18.6016 5.4465C18.5923 6.46787 18.5993 8.81286 18.6098 8.96222C18.6356 9.31803 18.7481 9.43995 19.0786 9.47727C19.1735 9.48723 19.2672 9.48971 19.3622 9.49593C19.4442 9.50215 19.5286 9.50713 19.6258 9.51335C19.6235 9.78332 19.6234 10.0396 19.6234 10.3307Z" fill="white"/>
</svg>
