<svg width="19" height="26" viewBox="0 0 19 26" fill="none" xmlns="http://www.w3.org/2000/svg">
<path d="M12.0887 25.12C10.1527 24.064 9.44866 21.688 10.4167 19.752L10.5047 19.576C11.5607 17.64 13.9367 16.936 15.8727 17.904L17.5447 18.784C17.8087 18.432 18.1607 17.992 18.5127 17.64C17.3687 16.936 15.9607 16.408 14.6407 15.968C14.4647 15.88 13.4967 15.44 14.1127 13.592C15.6967 11.92 16.7527 9.27998 16.7527 6.63998C16.7527 2.59198 14.2887 0.47998 11.1207 0.47998C8.04066 0.47998 5.57666 2.59198 5.57666 6.63998C5.57666 9.27998 6.63266 12.008 8.21666 13.68C8.83266 15.352 7.68866 15.968 7.51266 16.056C4.25666 17.288 0.472656 19.4 0.472656 21.512V22.304C0.472656 25.208 6.01666 25.912 11.2087 25.912C12.0007 25.912 12.7047 25.912 13.4967 25.824L12.0887 25.12Z" fill="white"/>
</svg>
