<svg xmlns="http://www.w3.org/2000/svg" width="20.172" height="20.182" viewBox="0 0 20.172 20.182"><g transform="translate(-1.26 -1.25)"><path d="M15.79,18.465H6.9a12.312,12.312,0,0,1-1.737-.094c-3.257-.357-3.9-2.309-3.9-5.547V6.891c0-3.238.638-5.191,3.924-5.547A12.021,12.021,0,0,1,6.9,1.25H15.79a12.492,12.492,0,0,1,1.737.094c3.266.357,3.9,2.309,3.9,5.547v5.932c0,3.238-.638,5.191-3.924,5.547A11.846,11.846,0,0,1,15.79,18.465ZM6.892,2.658a10.958,10.958,0,0,0-1.539.085C3.325,2.968,2.658,3.6,2.658,6.9v5.932c0,3.295.666,3.933,2.675,4.149a11.506,11.506,0,0,0,1.568.084H15.79a10.867,10.867,0,0,0,1.539-.084c2.027-.225,2.694-.854,2.694-4.158V6.891c0-3.295-.666-3.933-2.675-4.149a11.6,11.6,0,0,0-1.568-.085Z" transform="translate(0)" fill="#fff"/><path d="M16.988,8.978H13.534a.7.7,0,1,1,0-1.408h3.454a.7.7,0,1,1,0,1.408Z" transform="translate(-0.71 -0.388)" fill="#fff"/><path d="M9.939,9.2a.939.939,0,1,1,.939-.939A.941.941,0,0,1,9.939,9.2Z" transform="translate(-0.475 -0.372)" fill="#fff"/><path d="M6.789,9.2a.939.939,0,0,1,0-1.877H6.8A.939.939,0,1,1,6.789,9.2Z" transform="translate(-0.282 -0.372)" fill="#fff"/><path d="M16.569,14.768H6.7a.717.717,0,0,1-.713-.7.7.7,0,0,1,.695-.7h9.884a.7.7,0,1,1,0,1.408Z" transform="translate(-0.29 -0.743)" fill="#fff"/><path d="M16.34,22.658H6.954a.7.7,0,0,1,0-1.408H16.34a.7.7,0,0,1,0,1.408Z" transform="translate(-0.306 -1.227)" fill="#fff"/></g></svg>