<svg xmlns="http://www.w3.org/2000/svg" width="20.043" height="20.043" viewBox="0 0 20.043 20.043"><g transform="translate(-1.25 -1.25)"><path d="M16.352,21.293a8.529,8.529,0,0,1-3.309-.736A17.5,17.5,0,0,1,9.7,18.636a29.1,29.1,0,0,1-3.142-2.676,27.851,27.851,0,0,1-2.676-3.132,17.4,17.4,0,0,1-1.9-3.319A8.632,8.632,0,0,1,1.25,6.182a5.618,5.618,0,0,1,.382-2.06A4.979,4.979,0,0,1,2.881,2.313,3.385,3.385,0,0,1,5.3,1.25a2.521,2.521,0,0,1,1.053.233,2.133,2.133,0,0,1,.895.755L9.407,5.287a3.611,3.611,0,0,1,.447.792,2.094,2.094,0,0,1,.186.83,1.978,1.978,0,0,1-.3,1.025,3.729,3.729,0,0,1-.625.792l-.634.662a.455.455,0,0,0,.028.065,7.169,7.169,0,0,0,.764,1.035c.457.522.886,1,1.314,1.436.55.541,1.007.97,1.436,1.324a6.072,6.072,0,0,0,1.081.774l-.019.047.681-.671a3.482,3.482,0,0,1,.839-.643,1.968,1.968,0,0,1,1.818-.1,4.244,4.244,0,0,1,.783.438l3.1,2.2a2,2,0,0,1,.746.886,2.7,2.7,0,0,1,.205,1.007,3.109,3.109,0,0,1-.3,1.314,4.342,4.342,0,0,1-.746,1.119,4.781,4.781,0,0,1-1.781,1.277A5.5,5.5,0,0,1,16.352,21.293ZM5.3,2.648a2.043,2.043,0,0,0-1.445.671,3.576,3.576,0,0,0-.914,1.314,4.079,4.079,0,0,0-.289,1.548A7.187,7.187,0,0,0,3.264,8.96,15.561,15.561,0,0,0,5.016,12a25.791,25.791,0,0,0,2.526,2.964A26.248,26.248,0,0,0,10.516,17.5a15.147,15.147,0,0,0,3.067,1.762,5.56,5.56,0,0,0,4.316.326,3.442,3.442,0,0,0,1.277-.923,3.023,3.023,0,0,0,.522-.783,1.651,1.651,0,0,0,.168-.718,1.113,1.113,0,0,0-.1-.466.706.706,0,0,0-.261-.28l-3.1-2.2a2.673,2.673,0,0,0-.513-.289.49.49,0,0,0-.606.028,2.125,2.125,0,0,0-.541.42l-.708.7a1.329,1.329,0,0,1-1.352.28l-.252-.112a7.947,7.947,0,0,1-1.324-.942c-.447-.382-.932-.83-1.52-1.408-.457-.466-.914-.96-1.389-1.51a7.954,7.954,0,0,1-.951-1.314l-.112-.28a1.74,1.74,0,0,1-.075-.466,1.2,1.2,0,0,1,.354-.867l.7-.727a2.7,2.7,0,0,0,.42-.522.6.6,0,0,0,.1-.317.867.867,0,0,0-.075-.3,2.674,2.674,0,0,0-.3-.494L6.107,3.04a.859.859,0,0,0-.345-.289A1.167,1.167,0,0,0,5.3,2.648Zm7.793,11.429-.149.634.252-.653A.115.115,0,0,0,13.089,14.078Z" fill="#fff"/><path d="M18.212,9.411a.7.7,0,0,1-.7-.7,3.11,3.11,0,0,0-.895-1.631,2.52,2.52,0,0,0-1.669-.932.7.7,0,1,1,0-1.4,3.812,3.812,0,0,1,2.685,1.37,4.312,4.312,0,0,1,1.277,2.592A.7.7,0,0,1,18.212,9.411Z" transform="translate(-0.881 -0.237)" fill="#fff"/><path d="M21.475,9.174a.7.7,0,0,1-.7-.7,5.829,5.829,0,0,0-5.826-5.826.7.7,0,1,1,0-1.4,7.237,7.237,0,0,1,7.225,7.225A.7.7,0,0,1,21.475,9.174Z" transform="translate(-0.881)" fill="#fff"/></g></svg>