<svg xmlns="http://www.w3.org/2000/svg" width="23.533" height="23.533" viewBox="0 0 23.533 23.533"><path d="M10.184,4.87a1.921,1.921,0,0,0,0,2.716l3.686,3.686a1.921,1.921,0,0,0,2.716,0l3.686-3.686a1.921,1.921,0,0,0,0-2.716L16.586,1.184a1.921,1.921,0,0,0-2.716,0Zm5.044-2.328L11.542,6.228l3.686,3.686,3.686-3.686Z" transform="translate(2.698 -0.621)" fill="#fff" fill-rule="evenodd"/><path d="M0,3.561A2.561,2.561,0,0,1,2.561,1H7.683a2.561,2.561,0,0,1,2.561,2.561V8.683a2.561,2.561,0,0,1-2.561,2.561H2.561A2.561,2.561,0,0,1,0,8.683Zm1.921,0a.64.64,0,0,1,.64-.64H7.683a.64.64,0,0,1,.64.64V8.683a.64.64,0,0,1-.64.64H2.561a.64.64,0,0,1-.64-.64Z" transform="translate(0 -0.515)" fill="#fff" fill-rule="evenodd"/><path d="M2.561,11A2.561,2.561,0,0,0,0,13.561v5.122a2.561,2.561,0,0,0,2.561,2.561H7.683a2.561,2.561,0,0,0,2.561-2.561V13.561A2.561,2.561,0,0,0,7.683,11Zm5.762,2.561a.64.64,0,0,0-.64-.64H2.561a.64.64,0,0,0-.64.64v5.122a.64.64,0,0,0,.64.64H7.683a.64.64,0,0,0,.64-.64Z" transform="translate(0 2.289)" fill="#fff" fill-rule="evenodd"/><path d="M12.561,11A2.561,2.561,0,0,0,10,13.561v5.122a2.561,2.561,0,0,0,2.561,2.561h5.122a2.561,2.561,0,0,0,2.561-2.561V13.561A2.561,2.561,0,0,0,17.683,11Zm5.762,2.561a.64.64,0,0,0-.64-.64H12.561a.64.64,0,0,0-.64.64v5.122a.64.64,0,0,0,.64.64h5.122a.64.64,0,0,0,.64-.64Z" transform="translate(2.804 2.289)" fill="#fff" fill-rule="evenodd"/></svg>