<svg xmlns="http://www.w3.org/2000/svg" width="21.5" height="21.5" viewBox="0 0 21.5 21.5"><g transform="translate(-1.25 -1.25)"><path d="M12,22.75A10.75,10.75,0,1,1,22.75,12,10.759,10.759,0,0,1,12,22.75Zm0-20A9.25,9.25,0,1,0,21.25,12,9.261,9.261,0,0,0,12,2.75Z" fill="#fff"/><path d="M12,13.75a.755.755,0,0,1-.75-.75V8a.75.75,0,0,1,1.5,0v5A.755.755,0,0,1,12,13.75Z" fill="#fff"/><path d="M12,17a1,1,0,0,1-.38-.08,1.155,1.155,0,0,1-.33-.21,1.032,1.032,0,0,1-.21-.33.942.942,0,0,1,0-.76.9.9,0,0,1,.54-.54,1,1,0,0,1,.76,0,.9.9,0,0,1,.54.54.942.942,0,0,1,0,.76,1.032,1.032,0,0,1-.21.33,1.155,1.155,0,0,1-.33.21A1,1,0,0,1,12,17Z" fill="#fff"/></g></svg>