<svg xmlns="http://www.w3.org/2000/svg" width="22.251" height="22.25" viewBox="0 0 22.251 22.25"><g transform="translate(10279 16835.5)"><path d="M24.226,21.644a6.3,6.3,0,0,0,2.216-4.685A6.293,6.293,0,0,0,24,12.078a8.994,8.994,0,0,0-5.715-1.953,8.992,8.992,0,0,0-5.715,1.953,6.292,6.292,0,0,0-2.443,4.881,6.293,6.293,0,0,0,2.443,4.881,8.992,8.992,0,0,0,5.715,1.953c.287,0,.575-.013.861-.038l.489.424A9.264,9.264,0,0,0,25.7,26.442h.742V24.863l-.217-.217a9.232,9.232,0,0,1-2-3Zm-3.621,1.413-.981-.85-.327.04a8.356,8.356,0,0,1-1.014.062c-3.681,0-6.675-2.4-6.675-5.351s2.994-5.351,6.675-5.351,6.675,2.4,6.675,5.351a4.871,4.871,0,0,1-2.065,3.864l-.427.328.2.558a10.721,10.721,0,0,0,1.756,3.144,7.78,7.78,0,0,1-3.814-1.794Z" transform="translate(-10283.191 -16839.691)" fill="#fff"/><path d="M3.173,15.1a10.221,10.221,0,0,0,1.613-2.921l.2-.555L4.555,11.3A4.591,4.591,0,0,1,2.608,7.654c0-2.782,2.828-5.046,6.3-5.046a6.536,6.536,0,0,1,5.751,2.981c.183-.009.368-.014.553-.014q.558,0,1.1.054a6.431,6.431,0,0,0-1.956-2.64A8.579,8.579,0,0,0,8.912,1.125,8.579,8.579,0,0,0,3.46,2.989,6.014,6.014,0,0,0,1.125,7.654a6.02,6.02,0,0,0,2.1,4.461,8.733,8.733,0,0,1-1.88,2.815l-.217.217V16.7h.742a8.836,8.836,0,0,0,3.95-.932,7.292,7.292,0,0,1-.234-1.56,7.358,7.358,0,0,1-2.409.892Z" transform="translate(-10280.125 -16836.625)" fill="#fff"/></g></svg>