<svg xmlns="http://www.w3.org/2000/svg" width="23.53" height="22.012" viewBox="0 0 23.53 22.012"><path d="M24.082,6.26A20.485,20.485,0,0,0,8.31,2.953L9.334,4.308a19.1,19.1,0,0,1,2.993-.235A18.875,18.875,0,0,1,22.581,7.081L17.218,14.74l.962,1.273,5.912-8.444v-1.3ZM4.1,1.125V2.164L5.326,3.788A20.463,20.463,0,0,0,.573,6.26l-.01.007v1.3l10.9,15.568h1.729l3.25-4.641,2.934,3.882h1.09V21.3L5.216,1.125Zm11.381,16.1-3.152,4.5L2.074,7.081A18.925,18.925,0,0,1,6.284,5.056Z" transform="translate(-0.563 -1.125)" fill="#fff"/></svg>