<svg xmlns="http://www.w3.org/2000/svg" width="20.756" height="22.885" viewBox="0 0 20.756 22.885"><g transform="translate(-2.25 -1.25)"><path d="M14.757,24.134H10.5c-5.78,0-8.249-2.469-8.249-8.249V9.5c0-5.78,2.469-8.249,8.249-8.249h4.258c5.78,0,8.249,2.469,8.249,8.249v6.386C23.006,21.665,20.536,24.134,14.757,24.134ZM10.5,2.847c-4.907,0-6.652,1.746-6.652,6.652v6.386c0,4.907,1.746,6.652,6.652,6.652h4.258c4.907,0,6.652-1.746,6.652-6.652V9.5c0-4.907-1.746-6.652-6.652-6.652Z" transform="translate(0 0)" fill="#fff"/><path d="M15.531,11.184H9.145A2.4,2.4,0,0,1,6.75,8.789V7.725A2.4,2.4,0,0,1,9.145,5.33h6.386a2.4,2.4,0,0,1,2.395,2.395V8.789A2.4,2.4,0,0,1,15.531,11.184ZM9.145,6.927a.8.8,0,0,0-.8.8V8.789a.8.8,0,0,0,.8.8h6.386a.8.8,0,0,0,.8-.8V7.725a.8.8,0,0,0-.8-.8Z" transform="translate(0.29 0.263)" fill="#fff"/><path d="M8.214,15.049a1.076,1.076,0,0,1-.979-1.469.97.97,0,0,1,.234-.351.648.648,0,0,1,.16-.128.592.592,0,0,1,.181-.1.742.742,0,0,1,.2-.064,1.063,1.063,0,0,1,.958.287,1.017,1.017,0,0,1,.234.351,1.064,1.064,0,0,1-.99,1.469Z" transform="translate(0.316 0.751)" fill="#fff"/><path d="M12.224,15.049a1.075,1.075,0,0,1-.99-1.469.97.97,0,0,1,.234-.351.648.648,0,0,1,.16-.128.592.592,0,0,1,.181-.1.742.742,0,0,1,.2-.064,1.034,1.034,0,0,1,.617.064,1.052,1.052,0,0,1,.341.224,1.128,1.128,0,0,1,.234.351,1.037,1.037,0,0,1-.234,1.16A1.047,1.047,0,0,1,12.224,15.049Z" transform="translate(0.574 0.751)" fill="#fff"/><path d="M16.214,15.048a1.076,1.076,0,0,1-.979-1.469.97.97,0,0,1,.234-.351,1.1,1.1,0,0,1,1.5,0,1.082,1.082,0,0,1,.319.756,1.072,1.072,0,0,1-1.075,1.064Z" transform="translate(0.831 0.752)" fill="#fff"/><path d="M8.225,19.048A1.072,1.072,0,0,1,7.15,17.984a1.082,1.082,0,0,1,.319-.756.934.934,0,0,1,.16-.128A.592.592,0,0,1,7.81,17a.742.742,0,0,1,.2-.064,1.083,1.083,0,0,1,.958.287,1.85,1.85,0,0,1,.138.16l.1.192.064.192a1.443,1.443,0,0,1,.021.213,1.064,1.064,0,0,1-.319.756A1.047,1.047,0,0,1,8.225,19.048Z" transform="translate(0.316 1.009)" fill="#fff"/><path d="M12.225,19.048a1.072,1.072,0,0,1-1.075-1.064,1.07,1.07,0,0,1,1.277-1.043.742.742,0,0,1,.2.064.592.592,0,0,1,.181.1,1.677,1.677,0,0,1,.16.128,1.072,1.072,0,0,1,.309.756,1.054,1.054,0,0,1-1.054,1.064Z" transform="translate(0.573 1.009)" fill="#fff"/><path d="M16.214,19.048a1.054,1.054,0,0,1-1.054-1.064,1.072,1.072,0,0,1,.309-.756A1.052,1.052,0,0,1,15.809,17a1.054,1.054,0,0,1,1.469.979,1.037,1.037,0,0,1-.649.979A1.071,1.071,0,0,1,16.214,19.048Z" transform="translate(0.831 1.009)" fill="#fff"/></g></svg>