<svg xmlns="http://www.w3.org/2000/svg" width="22.502" height="23.807" viewBox="0 0 22.502 23.807"><g transform="translate(-1.287 -1.125)"><path d="M15.414,11.813a4.365,4.365,0,1,0,4.365,4.365A4.365,4.365,0,0,0,15.414,11.813Zm0,7.142a2.777,2.777,0,1,1,2.777-2.777,2.777,2.777,0,0,1-2.777,2.777Z" transform="translate(-2.876 -3.149)" fill="#fff"/><path d="M23.427,16.318l-1.576-1.3a9.576,9.576,0,0,0,0-3.984l1.576-1.3a.989.989,0,0,0,.228-1.262l-1.617-2.8a.989.989,0,0,0-1.207-.433l-1.913.717a9.525,9.525,0,0,0-3.449-1.993l-.336-2.012a.989.989,0,0,0-.978-.829H10.921a.989.989,0,0,0-.978.829L9.607,3.966A9.524,9.524,0,0,0,6.158,5.96L4.245,5.243a.989.989,0,0,0-1.207.433l-1.617,2.8a.989.989,0,0,0,.229,1.262l1.576,1.3a9.576,9.576,0,0,0,0,3.984l-1.576,1.3a.989.989,0,0,0-.228,1.262l1.617,2.8a.989.989,0,0,0,1.207.433L6.158,20.1a9.524,9.524,0,0,0,3.449,1.993L9.942,24.1a.989.989,0,0,0,.978.829h3.235a.989.989,0,0,0,.978-.829l.335-2.012A9.525,9.525,0,0,0,18.918,20.1l1.913.717a.989.989,0,0,0,1.207-.433l1.617-2.8a.989.989,0,0,0-.228-1.262Zm-2.511,2.833-2.386-.894-.361.364a7.933,7.933,0,0,1-3.6,2.082l-.5.131-.419,2.512H11.425l-.419-2.512-.5-.131a7.933,7.933,0,0,1-3.6-2.082l-.361-.364-2.386.894L3.047,17.222,5.013,15.6l-.134-.495a7.98,7.98,0,0,1,0-4.163l.134-.495L3.047,8.834,4.161,6.906,6.547,7.8l.361-.364a7.933,7.933,0,0,1,3.6-2.082l.5-.131.419-2.512h2.227l.419,2.512.5.131a7.933,7.933,0,0,1,3.6,2.082l.361.364,2.386-.894,1.113,1.928-1.965,1.618.134.495a7.98,7.98,0,0,1,0,4.163l-.134.495,1.965,1.618Z" transform="translate(0 0)" fill="#fff"/></g></svg>