<svg xmlns="http://www.w3.org/2000/svg" width="22.078" height="21.902" viewBox="0 0 22.078 21.902"><g transform="translate(-1.3 -1.381)"><path d="M20.76,13.312a.788.788,0,0,1-.774-.691A8.082,8.082,0,0,0,16.54,6.833a.771.771,0,1,1,.877-1.269,9.63,9.63,0,0,1,4.1,6.891.783.783,0,0,1-.691.856Z" transform="translate(0.472 0.128)" fill="#fff"/><path d="M3.514,13.362H3.431a.79.79,0,0,1-.691-.856A9.651,9.651,0,0,1,6.774,5.6a.777.777,0,1,1,.9,1.269,8.1,8.1,0,0,0-3.394,5.8A.763.763,0,0,1,3.514,13.362Z" transform="translate(0.045 0.129)" fill="#fff"/><path d="M12.206,22.687a9.613,9.613,0,0,1-4.343-1.032.775.775,0,1,1,.7-1.382,8.154,8.154,0,0,0,7.16.062.773.773,0,0,1,.671,1.393A9.509,9.509,0,0,1,12.206,22.687Z" transform="translate(0.194 0.595)" fill="#fff"/><path d="M12.172,8.663a3.642,3.642,0,1,1,3.642-3.642A3.641,3.641,0,0,1,12.172,8.663Zm0-5.726a2.094,2.094,0,1,0,2.094,2.094A2.1,2.1,0,0,0,12.172,2.938Z" transform="translate(0.229 0)" fill="#fff"/><path d="M4.942,20.893a3.642,3.642,0,1,1,3.642-3.642A3.641,3.641,0,0,1,4.942,20.893Zm0-5.736a2.094,2.094,0,1,0,2.094,2.094A2.1,2.1,0,0,0,4.942,15.157Z" transform="translate(0 0.387)" fill="#fff"/><path d="M19.282,20.893a3.642,3.642,0,1,1,3.642-3.642A3.641,3.641,0,0,1,19.282,20.893Zm0-5.736a2.094,2.094,0,1,0,2.094,2.094A2.1,2.1,0,0,0,19.282,15.157Z" transform="translate(0.454 0.387)" fill="#fff"/></g></svg>