<svg xmlns="http://www.w3.org/2000/svg" width="22.74" height="22.742" viewBox="0 0 22.74 22.742"><path d="M16.458,2.871a1.846,1.846,0,0,1,1.314.544l.649.649a2.224,2.224,0,0,1,.3,2.531,2.4,2.4,0,0,0,.481,2.682,2.385,2.385,0,0,0,2.683.481,2.708,2.708,0,0,1,1.118-.252,1.948,1.948,0,0,1,1.413.556l.649.649a1.86,1.86,0,0,1,0,2.627L13.34,25.07a1.858,1.858,0,0,1-2.627,0l-.649-.649a2.224,2.224,0,0,1-.3-2.531,2.4,2.4,0,0,0-.481-2.682A2.385,2.385,0,0,0,6.6,18.726a2.708,2.708,0,0,1-1.118.252,1.948,1.948,0,0,1-1.413-.556l-.649-.649a1.86,1.86,0,0,1,0-2.627L15.145,3.415A1.846,1.846,0,0,1,16.458,2.871Zm4.436,8.606a3.861,3.861,0,0,1-2.748-1.138,3.9,3.9,0,0,1-.783-4.37.823.823,0,0,0,0-.844l-.649-.649a.358.358,0,0,0-.506,0L4.476,16.206a.358.358,0,0,0,0,.506l.649.649a.481.481,0,0,0,.352.117,1.216,1.216,0,0,0,.492-.115,3.885,3.885,0,0,1,4.369.784,3.9,3.9,0,0,1,.783,4.37.823.823,0,0,0,0,.844l.649.649a.358.358,0,0,0,.506,0L24.009,12.28a.358.358,0,0,0,0-.506l-.649-.649a.481.481,0,0,0-.352-.117,1.216,1.216,0,0,0-.492.115A3.856,3.856,0,0,1,20.894,11.477Z" transform="translate(-2.872 -2.871)" fill="#fff"/></svg>