<svg xmlns="http://www.w3.org/2000/svg" width="21.685" height="19.005" viewBox="0 0 21.685 19.005">
  <path id="Path_37635" data-name="Path 37635" d="M15.219,5.282a8.484,8.484,0,0,0-1.585,1.055l-.852-.975a7.4,7.4,0,0,1,2.145-1.372A5.43,5.43,0,0,0,6.951,2.4,5.16,5.16,0,0,0,5.062,5.6l-.085.442-.44.078a6.065,6.065,0,0,0-1.155.312,3.158,3.158,0,0,0-1.411,4.946,3.04,3.04,0,0,0,2.18,1.271H5.5a5.416,5.416,0,0,0-.073.886q0,.207.015.41H4.13l-.081-.007a4.358,4.358,0,0,1-3.124-1.8A4.451,4.451,0,0,1,2.918,5.222a7.065,7.065,0,0,1,.968-.3A6.366,6.366,0,0,1,6.162,1.38a6.722,6.722,0,0,1,10.05,2.268,5.067,5.067,0,0,1,.844-.064c4.189.031,5.845,5.388,3.672,8.273a6.03,6.03,0,0,1-3.584,2.069L17,13.944h-.778c.01-.135.016-.271.016-.41a5.415,5.415,0,0,0-.073-.886h.763a4.772,4.772,0,0,0,2.763-1.565c1.545-2.057.449-6.186-2.643-6.206a4.466,4.466,0,0,0-1.828.4ZM9.881,10.642h1.9a.812.812,0,0,1,.809.809v2.8h1.388a.726.726,0,0,1,.62.292c.325.488-.118.969-.427,1.309-.874.959-2.35,2.38-2.781,2.888a.713.713,0,0,1-1.119,0c-.446-.521-2.035-2.046-2.866-2.98-.289-.325-.645-.767-.345-1.217a.732.732,0,0,1,.62-.292H9.072v-2.8a.814.814,0,0,1,.809-.809Z" transform="translate(0.001 -0.002)" fill="#075307"/>
</svg>
