<svg width="304" height="55" viewBox="0 0 304 55" fill="none" xmlns="http://www.w3.org/2000/svg">
<g filter="url(#filter0_d_309_80)">
<rect x="6" y="4" width="292" height="43" rx="21.5" fill="#054100"/>
<rect x="6.5" y="4.5" width="291" height="42" rx="21" stroke="white"/>
</g>
<path d="M82.6521 32H79.9187L79.9363 30.251H82.6521C83.4431 30.251 84.1052 30.0781 84.6384 29.7324C85.1775 29.3867 85.5818 28.8916 85.8513 28.2471C86.1267 27.6025 86.2644 26.835 86.2644 25.9443V25.25C86.2644 24.5586 86.1853 23.9463 86.0271 23.4131C85.8748 22.8799 85.6462 22.4316 85.3416 22.0684C85.0427 21.7051 84.6736 21.4297 84.2341 21.2422C83.8005 21.0547 83.2996 20.9609 82.7312 20.9609H79.866V19.2031H82.7312C83.5808 19.2031 84.3572 19.3467 85.0603 19.6338C85.7634 19.915 86.3699 20.3223 86.8796 20.8555C87.3953 21.3887 87.7908 22.0273 88.0662 22.7715C88.3416 23.5156 88.4792 24.3477 88.4792 25.2676V25.9443C88.4792 26.8643 88.3416 27.6963 88.0662 28.4404C87.7908 29.1846 87.3953 29.8232 86.8796 30.3564C86.364 30.8838 85.7488 31.291 85.0339 31.5781C84.325 31.8594 83.531 32 82.6521 32ZM81.1404 19.2031V32H78.9343V19.2031H81.1404ZM90.0789 27.3506V27.1484C90.0789 26.4629 90.1785 25.8271 90.3777 25.2412C90.5769 24.6494 90.864 24.1367 91.239 23.7031C91.6199 23.2637 92.0828 22.9238 92.6277 22.6836C93.1785 22.4375 93.7996 22.3145 94.491 22.3145C95.1882 22.3145 95.8093 22.4375 96.3542 22.6836C96.905 22.9238 97.3708 23.2637 97.7517 23.7031C98.1326 24.1367 98.4226 24.6494 98.6218 25.2412C98.821 25.8271 98.9207 26.4629 98.9207 27.1484V27.3506C98.9207 28.0361 98.821 28.6719 98.6218 29.2578C98.4226 29.8438 98.1326 30.3564 97.7517 30.7959C97.3708 31.2295 96.908 31.5693 96.363 31.8154C95.8181 32.0557 95.2 32.1758 94.5085 32.1758C93.8113 32.1758 93.1873 32.0557 92.6365 31.8154C92.0916 31.5693 91.6287 31.2295 91.2478 30.7959C90.8669 30.3564 90.5769 29.8438 90.3777 29.2578C90.1785 28.6719 90.0789 28.0361 90.0789 27.3506ZM92.197 27.1484V27.3506C92.197 27.7783 92.241 28.1826 92.3289 28.5635C92.4167 28.9443 92.5544 29.2783 92.7419 29.5654C92.9294 29.8525 93.1697 30.0781 93.4626 30.2422C93.7556 30.4062 94.1042 30.4883 94.5085 30.4883C94.9011 30.4883 95.241 30.4062 95.5281 30.2422C95.821 30.0781 96.0613 29.8525 96.2488 29.5654C96.4363 29.2783 96.574 28.9443 96.6619 28.5635C96.7556 28.1826 96.8025 27.7783 96.8025 27.3506V27.1484C96.8025 26.7266 96.7556 26.3281 96.6619 25.9531C96.574 25.5723 96.4333 25.2354 96.24 24.9424C96.0525 24.6494 95.8123 24.4209 95.5193 24.2568C95.2322 24.0869 94.8894 24.002 94.491 24.002C94.0925 24.002 93.7468 24.0869 93.4539 24.2568C93.1667 24.4209 92.9294 24.6494 92.7419 24.9424C92.5544 25.2354 92.4167 25.5723 92.3289 25.9531C92.241 26.3281 92.197 26.7266 92.197 27.1484ZM103.28 29.8906L105.477 22.4902H106.831L106.462 24.7051L104.247 32H103.034L103.28 29.8906ZM101.988 22.4902L103.702 29.9258L103.843 32H102.489L99.9138 22.4902H101.988ZM108.887 29.8379L110.549 22.4902H112.614L110.048 32H108.694L108.887 29.8379ZM107.059 22.4902L109.23 29.8027L109.503 32H108.29L106.049 24.6963L105.679 22.4902H107.059ZM116.156 24.5205V32H114.038V22.4902H116.033L116.156 24.5205ZM115.778 26.8936L115.093 26.8848C115.098 26.2109 115.192 25.5928 115.374 25.0303C115.561 24.4678 115.819 23.9844 116.147 23.5801C116.481 23.1758 116.88 22.8652 117.343 22.6484C117.805 22.4258 118.321 22.3145 118.889 22.3145C119.346 22.3145 119.76 22.3789 120.129 22.5078C120.504 22.6309 120.823 22.833 121.087 23.1143C121.356 23.3955 121.561 23.7617 121.702 24.2129C121.843 24.6582 121.913 25.2061 121.913 25.8564V32H119.786V25.8477C119.786 25.3906 119.719 25.0303 119.584 24.7666C119.455 24.4971 119.264 24.3066 119.012 24.1953C118.766 24.0781 118.459 24.0195 118.09 24.0195C117.726 24.0195 117.401 24.0957 117.114 24.248C116.827 24.4004 116.584 24.6084 116.385 24.8721C116.191 25.1357 116.042 25.4404 115.936 25.7861C115.831 26.1318 115.778 26.501 115.778 26.8936ZM126.343 18.5V32H124.216V18.5H126.343ZM128.259 27.3506V27.1484C128.259 26.4629 128.358 25.8271 128.557 25.2412C128.757 24.6494 129.044 24.1367 129.419 23.7031C129.8 23.2637 130.262 22.9238 130.807 22.6836C131.358 22.4375 131.979 22.3145 132.671 22.3145C133.368 22.3145 133.989 22.4375 134.534 22.6836C135.085 22.9238 135.551 23.2637 135.931 23.7031C136.312 24.1367 136.602 24.6494 136.802 25.2412C137.001 25.8271 137.1 26.4629 137.1 27.1484V27.3506C137.1 28.0361 137.001 28.6719 136.802 29.2578C136.602 29.8438 136.312 30.3564 135.931 30.7959C135.551 31.2295 135.088 31.5693 134.543 31.8154C133.998 32.0557 133.38 32.1758 132.688 32.1758C131.991 32.1758 131.367 32.0557 130.816 31.8154C130.271 31.5693 129.808 31.2295 129.427 30.7959C129.047 30.3564 128.757 29.8438 128.557 29.2578C128.358 28.6719 128.259 28.0361 128.259 27.3506ZM130.377 27.1484V27.3506C130.377 27.7783 130.421 28.1826 130.509 28.5635C130.596 28.9443 130.734 29.2783 130.922 29.5654C131.109 29.8525 131.349 30.0781 131.642 30.2422C131.935 30.4062 132.284 30.4883 132.688 30.4883C133.081 30.4883 133.421 30.4062 133.708 30.2422C134.001 30.0781 134.241 29.8525 134.428 29.5654C134.616 29.2783 134.754 28.9443 134.842 28.5635C134.935 28.1826 134.982 27.7783 134.982 27.3506V27.1484C134.982 26.7266 134.935 26.3281 134.842 25.9531C134.754 25.5723 134.613 25.2354 134.42 24.9424C134.232 24.6494 133.992 24.4209 133.699 24.2568C133.412 24.0869 133.069 24.002 132.671 24.002C132.272 24.002 131.927 24.0869 131.634 24.2568C131.346 24.4209 131.109 24.6494 130.922 24.9424C130.734 25.2354 130.596 25.5723 130.509 25.9531C130.421 26.3281 130.377 26.7266 130.377 27.1484ZM144.237 30.0928V25.5576C144.237 25.2178 144.176 24.9248 144.052 24.6787C143.929 24.4326 143.742 24.2422 143.49 24.1074C143.244 23.9727 142.933 23.9053 142.558 23.9053C142.213 23.9053 141.914 23.9639 141.662 24.0811C141.41 24.1982 141.214 24.3564 141.073 24.5557C140.932 24.7549 140.862 24.9805 140.862 25.2324H138.753C138.753 24.8574 138.844 24.4941 139.025 24.1426C139.207 23.791 139.47 23.4775 139.816 23.2021C140.162 22.9268 140.575 22.71 141.055 22.5518C141.536 22.3936 142.075 22.3145 142.673 22.3145C143.387 22.3145 144.02 22.4346 144.571 22.6748C145.128 22.915 145.564 23.2783 145.881 23.7646C146.203 24.2451 146.364 24.8486 146.364 25.5752V29.8027C146.364 30.2363 146.393 30.626 146.452 30.9717C146.516 31.3115 146.607 31.6074 146.724 31.8594V32H144.553C144.454 31.7715 144.375 31.4814 144.316 31.1299C144.263 30.7725 144.237 30.4268 144.237 30.0928ZM144.545 26.2168L144.562 27.5264H143.042C142.649 27.5264 142.303 27.5645 142.005 27.6406C141.706 27.7109 141.457 27.8164 141.258 27.957C141.058 28.0977 140.909 28.2676 140.809 28.4668C140.71 28.666 140.66 28.8916 140.66 29.1436C140.66 29.3955 140.719 29.627 140.836 29.8379C140.953 30.043 141.123 30.2041 141.345 30.3213C141.574 30.4385 141.849 30.4971 142.172 30.4971C142.605 30.4971 142.983 30.4092 143.305 30.2334C143.634 30.0518 143.891 29.832 144.079 29.5742C144.266 29.3105 144.366 29.0615 144.378 28.8271L145.063 29.7676C144.993 30.0078 144.873 30.2656 144.703 30.541C144.533 30.8164 144.31 31.0801 144.035 31.332C143.765 31.5781 143.44 31.7803 143.059 31.9385C142.684 32.0967 142.251 32.1758 141.759 32.1758C141.137 32.1758 140.584 32.0527 140.097 31.8066C139.611 31.5547 139.23 31.2178 138.955 30.7959C138.679 30.3682 138.542 29.8848 138.542 29.3457C138.542 28.8418 138.635 28.3965 138.823 28.0098C139.016 27.6172 139.298 27.2891 139.667 27.0254C140.042 26.7617 140.499 26.5625 141.038 26.4277C141.577 26.2871 142.192 26.2168 142.884 26.2168H144.545ZM154.38 30.0312V18.5H156.507V32H154.582L154.38 30.0312ZM148.192 27.3506V27.166C148.192 26.4453 148.277 25.7891 148.447 25.1973C148.617 24.5996 148.863 24.0869 149.185 23.6592C149.508 23.2256 149.9 22.8945 150.363 22.666C150.826 22.4316 151.347 22.3145 151.927 22.3145C152.502 22.3145 153.006 22.4258 153.439 22.6484C153.873 22.8711 154.242 23.1904 154.547 23.6064C154.851 24.0166 155.094 24.5088 155.276 25.083C155.458 25.6514 155.587 26.2842 155.663 26.9814V27.5703C155.587 28.25 155.458 28.8711 155.276 29.4336C155.094 29.9961 154.851 30.4824 154.547 30.8926C154.242 31.3027 153.87 31.6191 153.43 31.8418C152.997 32.0645 152.49 32.1758 151.91 32.1758C151.336 32.1758 150.817 32.0557 150.354 31.8154C149.897 31.5752 149.508 31.2383 149.185 30.8047C148.863 30.3711 148.617 29.8613 148.447 29.2754C148.277 28.6836 148.192 28.042 148.192 27.3506ZM150.31 27.166V27.3506C150.31 27.7842 150.348 28.1885 150.425 28.5635C150.507 28.9385 150.633 29.2695 150.802 29.5566C150.972 29.8379 151.192 30.0605 151.462 30.2246C151.737 30.3828 152.065 30.4619 152.446 30.4619C152.927 30.4619 153.322 30.3564 153.633 30.1455C153.943 29.9346 154.186 29.6504 154.362 29.293C154.544 28.9297 154.667 28.5254 154.731 28.0801V26.4893C154.696 26.1436 154.623 25.8213 154.511 25.5225C154.406 25.2236 154.262 24.9629 154.081 24.7402C153.899 24.5117 153.674 24.3359 153.404 24.2129C153.14 24.084 152.827 24.0195 152.464 24.0195C152.077 24.0195 151.749 24.1016 151.479 24.2656C151.21 24.4297 150.987 24.6553 150.811 24.9424C150.641 25.2295 150.515 25.5635 150.433 25.9443C150.351 26.3252 150.31 26.7324 150.31 27.166ZM165.621 19.2031V32H163.415V19.2031H165.621ZM170.842 24.8018V26.5508H165.058V24.8018H170.842ZM171.571 19.2031V20.9609H165.058V19.2031H171.571ZM178.18 30.0928V25.5576C178.18 25.2178 178.119 24.9248 177.996 24.6787C177.873 24.4326 177.685 24.2422 177.433 24.1074C177.187 23.9727 176.877 23.9053 176.502 23.9053C176.156 23.9053 175.857 23.9639 175.605 24.0811C175.353 24.1982 175.157 24.3564 175.016 24.5557C174.876 24.7549 174.805 24.9805 174.805 25.2324H172.696C172.696 24.8574 172.787 24.4941 172.969 24.1426C173.15 23.791 173.414 23.4775 173.76 23.2021C174.105 22.9268 174.518 22.71 174.999 22.5518C175.479 22.3936 176.018 22.3145 176.616 22.3145C177.331 22.3145 177.964 22.4346 178.514 22.6748C179.071 22.915 179.508 23.2783 179.824 23.7646C180.146 24.2451 180.307 24.8486 180.307 25.5752V29.8027C180.307 30.2363 180.337 30.626 180.395 30.9717C180.46 31.3115 180.551 31.6074 180.668 31.8594V32H178.497C178.397 31.7715 178.318 31.4814 178.26 31.1299C178.207 30.7725 178.18 30.4268 178.18 30.0928ZM178.488 26.2168L178.506 27.5264H176.985C176.593 27.5264 176.247 27.5645 175.948 27.6406C175.649 27.7109 175.4 27.8164 175.201 27.957C175.002 28.0977 174.852 28.2676 174.753 28.4668C174.653 28.666 174.603 28.8916 174.603 29.1436C174.603 29.3955 174.662 29.627 174.779 29.8379C174.896 30.043 175.066 30.2041 175.289 30.3213C175.517 30.4385 175.793 30.4971 176.115 30.4971C176.549 30.4971 176.927 30.4092 177.249 30.2334C177.577 30.0518 177.835 29.832 178.022 29.5742C178.21 29.3105 178.309 29.0615 178.321 28.8271L179.007 29.7676C178.936 30.0078 178.816 30.2656 178.646 30.541C178.476 30.8164 178.254 31.0801 177.978 31.332C177.709 31.5781 177.384 31.7803 177.003 31.9385C176.628 32.0967 176.194 32.1758 175.702 32.1758C175.081 32.1758 174.527 32.0527 174.041 31.8066C173.554 31.5547 173.174 31.2178 172.898 30.7959C172.623 30.3682 172.485 29.8848 172.485 29.3457C172.485 28.8418 172.579 28.3965 172.766 28.0098C172.96 27.6172 173.241 27.2891 173.61 27.0254C173.985 26.7617 174.442 26.5625 174.981 26.4277C175.52 26.2871 176.135 26.2168 176.827 26.2168H178.488ZM184.649 24.3008V32H182.531V22.4902H184.552L184.649 24.3008ZM187.558 22.4287L187.541 24.3975C187.412 24.374 187.271 24.3564 187.119 24.3447C186.972 24.333 186.826 24.3271 186.679 24.3271C186.316 24.3271 185.997 24.3799 185.721 24.4854C185.446 24.585 185.215 24.7314 185.027 24.9248C184.845 25.1123 184.705 25.3408 184.605 25.6104C184.506 25.8799 184.447 26.1816 184.429 26.5156L183.946 26.5508C183.946 25.9531 184.005 25.3994 184.122 24.8896C184.239 24.3799 184.415 23.9316 184.649 23.5449C184.889 23.1582 185.188 22.8564 185.546 22.6396C185.909 22.4229 186.328 22.3145 186.802 22.3145C186.931 22.3145 187.069 22.3262 187.216 22.3496C187.368 22.373 187.482 22.3994 187.558 22.4287ZM191.004 24.4238V32H188.885V22.4902H190.881L191.004 24.4238ZM190.661 26.8936L189.94 26.8848C189.94 26.2285 190.022 25.6221 190.186 25.0654C190.35 24.5088 190.591 24.0254 190.907 23.6152C191.223 23.1992 191.616 22.8799 192.085 22.6572C192.559 22.4287 193.107 22.3145 193.728 22.3145C194.162 22.3145 194.557 22.3789 194.915 22.5078C195.278 22.6309 195.592 22.8271 195.855 23.0967C196.125 23.3662 196.33 23.7119 196.47 24.1338C196.617 24.5557 196.69 25.0654 196.69 25.6631V32H194.572V25.8477C194.572 25.3848 194.502 25.0215 194.361 24.7578C194.226 24.4941 194.03 24.3066 193.772 24.1953C193.52 24.0781 193.219 24.0195 192.867 24.0195C192.469 24.0195 192.129 24.0957 191.847 24.248C191.572 24.4004 191.346 24.6084 191.171 24.8721C190.995 25.1357 190.866 25.4404 190.784 25.7861C190.702 26.1318 190.661 26.501 190.661 26.8936ZM196.558 26.3311L195.565 26.5508C195.565 25.9766 195.644 25.4346 195.802 24.9248C195.967 24.4092 196.204 23.958 196.514 23.5713C196.831 23.1787 197.22 22.8711 197.683 22.6484C198.146 22.4258 198.677 22.3145 199.274 22.3145C199.76 22.3145 200.194 22.3818 200.575 22.5166C200.962 22.6455 201.29 22.8506 201.559 23.1318C201.829 23.4131 202.034 23.7793 202.175 24.2305C202.315 24.6758 202.385 25.2148 202.385 25.8477V32H200.259V25.8389C200.259 25.3584 200.188 24.9863 200.048 24.7227C199.913 24.459 199.719 24.2773 199.468 24.1777C199.216 24.0723 198.914 24.0195 198.562 24.0195C198.234 24.0195 197.944 24.0811 197.692 24.2041C197.446 24.3213 197.238 24.4883 197.068 24.7051C196.898 24.916 196.769 25.1592 196.681 25.4346C196.599 25.71 196.558 26.0088 196.558 26.3311ZM208.758 32.1758C208.054 32.1758 207.419 32.0615 206.85 31.833C206.288 31.5986 205.807 31.2734 205.409 30.8574C205.016 30.4414 204.715 29.9521 204.504 29.3896C204.293 28.8271 204.187 28.2207 204.187 27.5703V27.2188C204.187 26.4746 204.296 25.8008 204.512 25.1973C204.729 24.5938 205.031 24.0781 205.418 23.6504C205.804 23.2168 206.261 22.8857 206.789 22.6572C207.316 22.4287 207.887 22.3145 208.503 22.3145C209.182 22.3145 209.777 22.4287 210.287 22.6572C210.797 22.8857 211.219 23.208 211.552 23.624C211.892 24.0342 212.144 24.5234 212.308 25.0918C212.478 25.6602 212.563 26.2871 212.563 26.9727V27.8779H205.216V26.3574H210.471V26.1904C210.46 25.8096 210.384 25.4521 210.243 25.1182C210.108 24.7842 209.9 24.5146 209.619 24.3096C209.338 24.1045 208.963 24.002 208.494 24.002C208.142 24.002 207.829 24.0781 207.553 24.2305C207.284 24.377 207.058 24.5908 206.877 24.8721C206.695 25.1533 206.554 25.4932 206.455 25.8916C206.361 26.2842 206.314 26.7266 206.314 27.2188V27.5703C206.314 27.9863 206.37 28.373 206.481 28.7305C206.598 29.082 206.768 29.3896 206.991 29.6533C207.214 29.917 207.483 30.125 207.8 30.2773C208.116 30.4238 208.476 30.4971 208.881 30.4971C209.39 30.4971 209.844 30.3945 210.243 30.1895C210.641 29.9844 210.987 29.6943 211.28 29.3193L212.396 30.4004C212.191 30.6992 211.925 30.9863 211.596 31.2617C211.268 31.5312 210.867 31.751 210.392 31.9209C209.924 32.0908 209.379 32.1758 208.758 32.1758ZM216.343 24.3008V32H214.224V22.4902H216.246L216.343 24.3008ZM219.252 22.4287L219.234 24.3975C219.105 24.374 218.965 24.3564 218.812 24.3447C218.666 24.333 218.519 24.3271 218.373 24.3271C218.01 24.3271 217.69 24.3799 217.415 24.4854C217.139 24.585 216.908 24.7314 216.72 24.9248C216.539 25.1123 216.398 25.3408 216.299 25.6104C216.199 25.8799 216.14 26.1816 216.123 26.5156L215.639 26.5508C215.639 25.9531 215.698 25.3994 215.815 24.8896C215.932 24.3799 216.108 23.9316 216.343 23.5449C216.583 23.1582 216.882 22.8564 217.239 22.6396C217.602 22.4229 218.021 22.3145 218.496 22.3145C218.625 22.3145 218.762 22.3262 218.909 22.3496C219.061 22.373 219.176 22.3994 219.252 22.4287ZM230.256 20.9082L226.432 32H224.121L228.937 19.2031H230.414L230.256 20.9082ZM233.455 32L229.623 20.9082L229.456 19.2031H230.941L235.775 32H233.455ZM233.27 27.2539V29.0029H226.309V27.2539H233.27ZM238.966 24.3184V35.6562H236.847V22.4902H238.799L238.966 24.3184ZM245.162 27.1572V27.3418C245.162 28.0332 245.08 28.6748 244.916 29.2666C244.758 29.8525 244.52 30.3652 244.204 30.8047C243.893 31.2383 243.51 31.5752 243.052 31.8154C242.595 32.0557 242.068 32.1758 241.47 32.1758C240.879 32.1758 240.36 32.0674 239.915 31.8506C239.475 31.6279 239.103 31.3145 238.799 30.9102C238.494 30.5059 238.248 30.0312 238.06 29.4863C237.879 28.9355 237.75 28.332 237.674 27.6758V26.9639C237.75 26.2666 237.879 25.6338 238.06 25.0654C238.248 24.4971 238.494 24.0078 238.799 23.5977C239.103 23.1875 239.475 22.8711 239.915 22.6484C240.354 22.4258 240.867 22.3145 241.453 22.3145C242.051 22.3145 242.581 22.4316 243.044 22.666C243.507 22.8945 243.896 23.2227 244.213 23.6504C244.529 24.0723 244.766 24.582 244.925 25.1797C245.083 25.7715 245.162 26.4307 245.162 27.1572ZM243.044 27.3418V27.1572C243.044 26.7178 243.003 26.3105 242.921 25.9355C242.839 25.5547 242.71 25.2207 242.534 24.9336C242.358 24.6465 242.133 24.4238 241.857 24.2656C241.588 24.1016 241.262 24.0195 240.882 24.0195C240.507 24.0195 240.184 24.084 239.915 24.2129C239.645 24.3359 239.42 24.5088 239.238 24.7314C239.056 24.9541 238.916 25.2148 238.816 25.5137C238.717 25.8066 238.646 26.126 238.605 26.4717V28.1768C238.676 28.5986 238.796 28.9854 238.966 29.3369C239.135 29.6885 239.376 29.9697 239.686 30.1807C240.003 30.3857 240.407 30.4883 240.899 30.4883C241.28 30.4883 241.605 30.4062 241.875 30.2422C242.144 30.0781 242.364 29.8525 242.534 29.5654C242.71 29.2725 242.839 28.9355 242.921 28.5547C243.003 28.1738 243.044 27.7695 243.044 27.3418ZM249.091 24.3184V35.6562H246.972V22.4902H248.924L249.091 24.3184ZM255.287 27.1572V27.3418C255.287 28.0332 255.205 28.6748 255.041 29.2666C254.883 29.8525 254.645 30.3652 254.329 30.8047C254.018 31.2383 253.635 31.5752 253.177 31.8154C252.72 32.0557 252.193 32.1758 251.595 32.1758C251.004 32.1758 250.485 32.0674 250.04 31.8506C249.6 31.6279 249.228 31.3145 248.924 30.9102C248.619 30.5059 248.373 30.0312 248.185 29.4863C248.004 28.9355 247.875 28.332 247.799 27.6758V26.9639C247.875 26.2666 248.004 25.6338 248.185 25.0654C248.373 24.4971 248.619 24.0078 248.924 23.5977C249.228 23.1875 249.6 22.8711 250.04 22.6484C250.479 22.4258 250.992 22.3145 251.578 22.3145C252.176 22.3145 252.706 22.4316 253.169 22.666C253.632 22.8945 254.021 23.2227 254.338 23.6504C254.654 24.0723 254.891 24.582 255.05 25.1797C255.208 25.7715 255.287 26.4307 255.287 27.1572ZM253.169 27.3418V27.1572C253.169 26.7178 253.128 26.3105 253.046 25.9355C252.964 25.5547 252.835 25.2207 252.659 24.9336C252.483 24.6465 252.258 24.4238 251.982 24.2656C251.713 24.1016 251.387 24.0195 251.007 24.0195C250.632 24.0195 250.309 24.084 250.04 24.2129C249.77 24.3359 249.545 24.5088 249.363 24.7314C249.181 24.9541 249.041 25.2148 248.941 25.5137C248.842 25.8066 248.771 26.126 248.73 26.4717V28.1768C248.801 28.5986 248.921 28.9854 249.091 29.3369C249.26 29.6885 249.501 29.9697 249.811 30.1807C250.128 30.3857 250.532 30.4883 251.024 30.4883C251.405 30.4883 251.73 30.4062 252 30.2422C252.269 30.0781 252.489 29.8525 252.659 29.5654C252.835 29.2725 252.964 28.9355 253.046 28.5547C253.128 28.1738 253.169 27.7695 253.169 27.3418Z" fill="white"/>
<path d="M58.7927 28.3503L53.8791 23.4366L55.2549 22.0116L57.81 24.5667V16.5575H59.7755V24.5667L62.3306 22.0116L63.7064 23.4366L58.7927 28.3503ZM52.8964 32.2812C52.3559 32.2812 51.8933 32.0889 51.5088 31.7043C51.1242 31.3197 50.9316 30.8569 50.9309 30.3157V27.3675H52.8964V30.3157H64.6891V27.3675H66.6546V30.3157C66.6546 30.8562 66.4623 31.3191 66.0777 31.7043C65.6931 32.0895 65.2303 32.2818 64.6891 32.2812H52.8964Z" fill="white"/>
<defs>
<filter id="filter0_d_309_80" x="0.0999999" y="0.0999999" width="303.8" height="54.8" filterUnits="userSpaceOnUse" color-interpolation-filters="sRGB">
<feFlood flood-opacity="0" result="BackgroundImageFix"/>
<feColorMatrix in="SourceAlpha" type="matrix" values="0 0 0 0 0 0 0 0 0 0 0 0 0 0 0 0 0 0 127 0" result="hardAlpha"/>
<feMorphology radius="1" operator="erode" in="SourceAlpha" result="effect1_dropShadow_309_80"/>
<feOffset dy="2"/>
<feGaussianBlur stdDeviation="3.45"/>
<feComposite in2="hardAlpha" operator="out"/>
<feColorMatrix type="matrix" values="0 0 0 0 0.809148 0 0 0 0 1 0 0 0 0 0.584615 0 0 0 0.62 0"/>
<feBlend mode="normal" in2="BackgroundImageFix" result="effect1_dropShadow_309_80"/>
<feBlend mode="normal" in="SourceGraphic" in2="effect1_dropShadow_309_80" result="shape"/>
</filter>
</defs>
</svg>
