<svg xmlns="http://www.w3.org/2000/svg" width="23.652" height="21.975" viewBox="0 0 23.652 21.975">
  <g id="Group_35615" data-name="Group 35615" transform="translate(0 0.003)">
    <path id="Path_32213" data-name="Path 32213" d="M18.242,0a1.285,1.285,0,0,0-.974.285,1.266,1.266,0,0,0-.481.891l-.3,2.866A1.315,1.315,0,0,0,17.661,5.5l1.082.114a5.286,5.286,0,0,1-.371.795,2.2,2.2,0,0,1-.654.689,4.641,4.641,0,0,0,1.438-.452,4.036,4.036,0,0,0,1.139-.866l1.2.127a1.3,1.3,0,0,0,.974-.285,1.266,1.266,0,0,0,.481-.891l.3-2.866a1.285,1.285,0,0,0-.285-.974,1.266,1.266,0,0,0-.891-.481L18.242,0ZM7.735,10.958a17.944,17.944,0,0,1,8.382,0,1.054,1.054,0,0,1,.645.393,1.079,1.079,0,0,1,.144.191l1.9,2.658,1.164-3.189a1.009,1.009,0,0,1,.454-.622v0l1.3-.972a.316.316,0,0,1,.441.064h0a.316.316,0,0,1-.064.441l-.758.568c.067.027.137.056.206.089l.83-.543a.243.243,0,0,1,.337.071h0a.244.244,0,0,1-.069.337l-.425.277h1.084a.347.347,0,0,1,.346.346h0a.347.347,0,0,1-.346.346h-.939a2.6,2.6,0,0,1-.154.393L20.194,17.62h0a1.184,1.184,0,0,1-2.138.2l-1.817-2.795-.895,4.919c-.2,1.091-.853,2.023-1.894,2.023H10.4c-1.041,0-1.7-.932-1.9-2.023l-.939-5.16L5.6,17.824a1.184,1.184,0,0,1-2.138-.2h0L1.44,11.8a2.821,2.821,0,0,1-.154-.393H.346A.347.347,0,0,1,0,11.062H0a.347.347,0,0,1,.346-.346H1.43L1,10.439A.244.244,0,0,1,.935,10.1h0a.246.246,0,0,1,.337-.071l.83.543c.069-.031.137-.062.206-.089l-.758-.568a.314.314,0,0,1-.064-.439h0a.316.316,0,0,1,.441-.064l1.3.972v0a1.009,1.009,0,0,1,.454.622L4.844,14.2l1.9-2.658a1.263,1.263,0,0,1,.972-.579l.017-.006Zm4.023-9.021A3.892,3.892,0,1,1,7.866,5.829a3.891,3.891,0,0,1,3.892-3.892ZM19.4,3.793l.626.1-.089.552-.626-.1.089-.552Zm.674-.2-.624-.1c.06-.768,0-1.209.121-1.967a.513.513,0,0,1,1.012.164c-.125.756-.325,1.157-.51,1.9Z" transform="translate(0 0)" fill="#075307"/>
  </g>
</svg>
