<svg xmlns="http://www.w3.org/2000/svg" width="24.08" height="23.458" viewBox="0 0 24.08 23.458">
  <g id="Group_161637" data-name="Group 161637" transform="translate(1849 3807)">
    <path id="Path_38008" data-name="Path 38008" d="M9.692,142.43a.18.18,0,0,0-.147.243c.039.086.131.11.3.129a26.894,26.894,0,0,0,3.865-.183c.677-.044,1.4.145,1.933-.4a1.893,1.893,0,0,0,.461-1.348.182.182,0,0,1,.119-.167,11.945,11.945,0,0,0,2.408-1.333c.9-.611,3.374-2.884,4.167-3.014,1.054-.172,1.674.647,1.011,1.548-1.417,1.927-3.6,3.747-5.066,5.7l-.01.013c-2.806,3.154-7.21,2.145-10.944,2.054a2.594,2.594,0,0,0-1.578.224c-.656.554-1.334,1.752-2.013,2.208-.028.019-.053.038-.079.054a.184.184,0,0,1-.226-.029l-3.838-3.9a.184.184,0,0,1,0-.259l3.953-3.944.018-.016c1.449-1.123,2.03-.784,3.672-.8a26.338,26.338,0,0,1,6.7.74c.722.174,1.292.413,1.245,1.277s-.661.967-1.4,1.029c-1.317.11-2.738,0-4.041.088-.174.012-.339.063-.51.084Z" transform="translate(-1848.999 -3931.722)" fill="#686e74"/>
    <path id="Path_38009" data-name="Path 38009" d="M94.064,2.19C95.7,1.868,97.138.836,98.633.249c2.136-.838,3.47.574,5.387,1.342.3.122,1.634.486,1.7.54.28.21-.03,2.148-.118,2.579a10.7,10.7,0,0,1-4.649,6.841c-.616.355-.869.618-1.553.31-3.315-1.492-5.636-6.106-5.34-9.672Zm8.13,1.8c-.49.271-2.024,2.221-2.371,2.312-.42.11-1.242-1.559-1.823-1.2a.416.416,0,0,0-.143.408,18.271,18.271,0,0,0,1.619,1.707.465.465,0,0,0,.434.07c.424-.127,2.168-2.319,2.711-2.679.17-.368-.046-.629-.429-.615Z" transform="translate(-1936.216 -3806.992)" fill="#686e74"/>
  </g>
</svg>
