<?xml version="1.0" encoding="utf-8"?>
<!-- Generator: Adobe Illustrator 28.1.0, SVG Export Plug-In . SVG Version: 6.00 Build 0)  -->
<svg version="1.1" id="Layer_1" xmlns="http://www.w3.org/2000/svg" xmlns:xlink="http://www.w3.org/1999/xlink" x="0px" y="0px"
	 viewBox="0 0 1000 1000" style="enable-background:new 0 0 1000 1000;" xml:space="preserve">
<style type="text/css">
	.st0{clip-path:url(#SVGID_00000169548480210280804020000005579102906537038515_);}
	.st1{fill:url(#SVGID_00000131360633268372471110000015105635852928479929_);}
	.st2{fill:url(#SVGID_00000052810353082995837590000012609389467882571910_);}
	.st3{fill:url(#SVGID_00000141434407589574290610000018338175219490367365_);}
	.st4{fill:#141414;}
	.st5{fill:#FFFFFF;}
	.st6{fill:url(#SVGID_00000096060041813714352570000003156140336158340515_);}
	.st7{fill:#3D3D3D;}
	.st8{fill:#5FAB29;}
</style>
<g>
	<defs>
		<rect id="SVGID_1_" x="354.5" y="308.4" width="242.8" height="244.2"/>
	</defs>
	<clipPath id="SVGID_00000145033504521090547700000016008765858951121034_">
		<use xlink:href="#SVGID_1_"  style="overflow:visible;"/>
	</clipPath>
	<g style="clip-path:url(#SVGID_00000145033504521090547700000016008765858951121034_);">
		
			<linearGradient id="SVGID_00000103964894644019976850000004581112408213775768_" gradientUnits="userSpaceOnUse" x1="298.7924" y1="538.7175" x2="298.7924" y2="667.6895" gradientTransform="matrix(1 0 0 -1 202.5 1081)">
			<stop  offset="0" style="stop-color:#2A79FF"/>
			<stop  offset="1" style="stop-color:#68D400"/>
		</linearGradient>
		<path style="fill:url(#SVGID_00000103964894644019976850000004581112408213775768_);" d="M593.8,452.6c0,1,0,2,0,3l-0.1,1.6
			c0,0.3,0,0.6-0.1,0.9l-0.1,0.7c-0.1,0.7-0.2,1.5-0.2,2.2l-0.1,0.9c0,0.2,0,0.3-0.1,0.5l-0.3,2l-0.1,0.4c-0.7,4.2-1.6,8.2-2.7,12
			c-2.3,7.8-5.6,15.3-9.9,22.2l-0.8,1.4c-0.2,0.3-0.3,0.5-0.5,0.8l-0.8,1.2l-1.3,1.8l-1.3,1.9l-1.4,1.8l-1.3,1.7
			c0,0-1.3,1.6-1.5,1.7l-0.6,0.7c-0.5,0.5-1,1.1-1.5,1.6l-0.1,0.1c-1.2,1.3-2.5,2.7-4.2,4.3l-1.2,1.1c-0.2,0.2-0.4,0.4-0.6,0.6
			l-0.6,0.5c-0.3,0.3-0.6,0.5-0.9,0.8l-1.3,1.1l-1.8,1.4l-1.8,1.4l-1.7,1.3l-0.3,0.2l-0.9,0.6c-0.2,0.2-0.5,0.3-0.7,0.5l-0.7,0.5
			c-0.6,0.4-1.1,0.8-1.7,1.1l-0.1,0.1c-1.5,1-3.1,1.9-5.1,3.1l-1.5,0.8c-0.1,0.1-0.3,0.1-0.4,0.2l-0.8,0.4c-0.7,0.3-1.3,0.7-2,1
			l-0.6,0.3c-1.5,0.7-3.5,1.6-5.4,2.4l-0.1,0c-3.6,1.4-7.4,2.6-11.4,3.6c-7.3,1.8-14.8,2.7-22.2,2.7c-0.5,0-1.1,0-1.6,0l-1.5,0
			l-2.3-0.1l-2.3-0.2c-1.9-0.2-3.9-0.4-6-0.7c-3.8-0.5-7.8-1.4-11.6-2.5c-2.4-0.7-4.1-1.2-5.7-1.8l-0.2-0.1
			c-0.7-0.2-1.4-0.5-2.1-0.8l-0.7-0.3c-0.2-0.1-0.5-0.2-0.7-0.3l-1-0.4c-0.3-0.1-0.5-0.2-0.8-0.3l-1.6-0.7c-0.3-0.1-0.5-0.2-0.8-0.3
			l-0.7-0.3c-0.6-0.3-1.2-0.6-1.8-0.8l-0.8-0.4c-0.3-0.1-2-1-2-1l-1.9-1.1l-1.3-0.8c-2.4-1.4-4.7-3-7-4.6
			c-10.7-7.8-19.6-17.8-26.1-29.3l-0.1-0.1c-0.3-0.6-0.6-1.2-0.9-1.7l-0.5-0.8c-0.1-0.3-1-2-1-2l-1-2l-0.9-2.1l-0.9-2.1l-0.8-2.1
			l-0.8-2.1l-0.7-2l-0.7-2.3l-0.6-2.1l-0.6-2.3l-0.5-2.2l-0.5-2.2l-0.4-2.2l-0.3-2.2l-0.3-2.3l-0.2-2.2c0-0.3,0-0.6-0.1-0.9l-0.1-1
			c0-0.3,0-0.6-0.1-0.9l-0.1-1.9c0-0.2,0-0.3,0-0.5l0-1.7c0-0.1,0-0.2,0-0.4v-1.8c0-4.1,0.3-8.2,0.9-12.1c0.5-3.9,1.4-7.9,2.4-11.8
			c1-3.8,2.4-7.7,4-11.4c0.8-1.8,1.6-3.7,2.5-5.5c0.1-0.2,0.2-0.3,0.2-0.5c0-0.1,0.1-0.1,0.1-0.2c1.2-2,2.6-3.6,3.8-4.4
			c1.2-0.7,3.7-1.3,6.6-1.7c1.6-0.2,3.3-0.4,4.8-0.6c9.5-1.2,21.3-2.6,30.7-10.6c7.2-6.1,12.5-14.5,15.7-24.1c0.7-2,1.3-4.1,1.7-6.3
			c6.1-1.2,12.4-1.9,18.8-1.9C552.2,359.9,593.8,401.4,593.8,452.6L593.8,452.6z"/>
		
			<linearGradient id="SVGID_00000165923721031391850340000013429971541284122502_" gradientUnits="userSpaceOnUse" x1="298.6246" y1="538.7178" x2="299.0166" y2="750.0266" gradientTransform="matrix(1 0 0 -1 202.5 1081)">
			<stop  offset="0" style="stop-color:#2A79FF"/>
			<stop  offset="1" style="stop-color:#68D400"/>
		</linearGradient>
		<path style="fill:url(#SVGID_00000165923721031391850340000013429971541284122502_);" d="M593.8,452.6c0,1,0,2,0,3l-0.1,1.6
			c0,0.3,0,0.6-0.1,0.9l-0.1,0.7c-0.1,0.7-0.2,1.5-0.2,2.2l-0.1,0.9c0,0.2,0,0.3-0.1,0.5l-0.3,2l-0.1,0.4c-0.7,4.2-1.6,8.2-2.7,12
			c-2.3,7.8-5.6,15.3-9.9,22.2l-0.8,1.4c-0.2,0.3-0.3,0.5-0.5,0.8l-0.8,1.2l-1.3,1.8l-1.3,1.9l-1.4,1.8l-1.3,1.7
			c0,0-1.3,1.6-1.5,1.7l-0.6,0.7c-0.5,0.5-1,1.1-1.5,1.6l-0.1,0.1c-1.2,1.3-2.5,2.7-4.2,4.3l-1.2,1.1c-0.2,0.2-0.4,0.4-0.6,0.6
			l-0.6,0.5c-0.3,0.3-0.6,0.5-0.9,0.8l-1.3,1.1l-1.8,1.4l-1.8,1.4l-1.7,1.3l-0.3,0.2l-0.9,0.6c-0.2,0.2-0.5,0.3-0.7,0.5l-0.7,0.5
			c-0.6,0.4-1.1,0.8-1.7,1.1l-0.1,0.1c-1.5,1-3.1,1.9-5.1,3.1l-1.5,0.8c-0.1,0.1-0.3,0.1-0.4,0.2l-0.8,0.4c-0.7,0.3-1.3,0.7-2,1
			l-0.6,0.3c-1.5,0.7-3.5,1.6-5.4,2.4l-0.1,0c-3.6,1.4-7.4,2.6-11.4,3.6c-7.3,1.8-14.8,2.7-22.2,2.7c-0.5,0-1.1,0-1.6,0l-1.5,0
			l-2.3-0.1l-2.3-0.2c-1.9-0.2-3.9-0.4-6-0.7c-3.8-0.5-7.8-1.4-11.6-2.5c-2.4-0.7-4.1-1.2-5.7-1.8l-0.2-0.1
			c-0.7-0.2-1.4-0.5-2.1-0.8l-0.7-0.3c-0.2-0.1-0.5-0.2-0.7-0.3l-1-0.4c-0.3-0.1-0.5-0.2-0.8-0.3l-1.6-0.7c-0.3-0.1-0.5-0.2-0.8-0.3
			l-0.7-0.3c-0.6-0.3-1.2-0.6-1.8-0.8l-0.8-0.4c-0.3-0.1-2-1-2-1l-1.9-1.1l-1.3-0.8c-2.4-1.4-4.7-3-7-4.6
			c-10.7-7.8-19.6-17.8-26.1-29.3l-0.1-0.1c-0.3-0.6-0.6-1.2-0.9-1.7l-0.5-0.8c-0.1-0.3-1-2-1-2l-1-2l-0.9-2.1l-0.9-2.1l-0.8-2.1
			l-0.8-2.1l-0.7-2l-0.7-2.3l-0.6-2.1l-0.6-2.3l-0.5-2.2l-0.5-2.2l-0.4-2.2l-0.3-2.2l-0.3-2.3l-0.2-2.2c0-0.3,0-0.6-0.1-0.9l-0.1-1
			c0-0.3,0-0.6-0.1-0.9l-0.1-1.9c0-0.2,0-0.3,0-0.5l0-1.7c0-0.1,0-0.2,0-0.4v-1.8c0-4.1,0.3-8.2,0.9-12.1c0.5-3.9,1.4-7.9,2.4-11.8
			c1-3.8,2.4-7.7,4-11.4c0.8-1.8,1.6-3.7,2.5-5.5c0.1-0.2,0.2-0.4,0.3-0.7c1.2-2,2.6-3.6,3.8-4.4c1.2-0.7,3.7-1.3,6.6-1.7
			c1.6-0.2,3.3-0.4,4.8-0.6c9.5-1.2,21.3-2.6,30.7-10.6c7.2-6.1,12.5-14.5,15.7-24.1c0.7-2,1.3-4.1,1.7-6.3
			c6.1-1.2,12.4-1.9,18.8-1.9C552.2,359.9,593.8,401.4,593.8,452.6L593.8,452.6z"/>
		
			<linearGradient id="SVGID_00000019659570304738265160000002010933867583760045_" gradientUnits="userSpaceOnUse" x1="298.5219" y1="542.7895" x2="298.5219" y2="664.8165" gradientTransform="matrix(1 0 0 -1 202.5 1081)">
			<stop  offset="0" style="stop-color:#7AD03F"/>
			<stop  offset="1" style="stop-color:#E8FDC4"/>
		</linearGradient>
		<path style="fill:url(#SVGID_00000019659570304738265160000002010933867583760045_);" d="M588,452.6c0,48.1-39,87-87,87
			c-48,0-87-39-87-87c0-18.3,5.6-35.3,15.3-49.3c1.6-0.2,3.3-0.4,4.8-0.6c9.5-1.2,21.3-2.6,30.7-10.6c7.2-6.1,12.5-14.5,15.7-24.1
			c6.6-1.6,13.5-2.4,20.5-2.4C549.1,365.6,588,404.6,588,452.6z"/>
		<path class="st4" d="M553.1,522.3c-3.1-6.8-7.3-13-12.5-18.6c-7.8-8.3-17.2-14.1-28.2-17.3c0.9-0.3,1.7-0.4,2.5-0.4
			c10.4,0,20.9,0,31.3,0.1c1.9,0,2.7-0.6,3.2-2.4c3.3-12.4,4.2-24.9,2.2-37.6c-2.7-16.7-9.2-31.4-21.9-42.9c-13.5-12.2-31-15-47-7.2
			c-22.8,11.1-33.4,38.6-33.7,62.6c-0.1,8.4,1.1,16.8,3.3,24.9c0.6,2.1,1.5,2.7,3.6,2.7c10.5-0.1,21,0,31.5,0c0.7,0,1.4,0.1,2.7,0.2
			c-4.5,1.8-8.6,3.1-12.3,5c-13.6,7-22.8,17.7-29.1,30.9c-0.7,1.4-1.3,2.8-1.8,4.2c2.3,1.6,4.6,3.2,7,4.6l1.3,0.8l1.9,1.1
			c0,0,1.7,0.9,2,1l0.8,0.4c0.6,0.3,1.2,0.6,1.8,0.8l0.7,0.3c0.2,0.1,0.5,0.2,0.8,0.3l1.6,0.7c0.3,0.1,0.5,0.2,0.8,0.3l1,0.4
			c0.2,0.1,0.5,0.2,0.7,0.3l0.7,0.3c0.7,0.3,1.4,0.5,2.1,0.8l0.2,0.1c1.6,0.6,3.3,1.1,5.7,1.8c3.9,1.1,7.8,1.9,11.6,2.5
			c2.1,0.3,4.1,0.5,6,0.7l2.3,0.2l2.3,0.1l1.5,0c0.5,0,1.1,0,1.6,0c7.4,0,14.8-0.9,22.2-2.7c4-1,7.8-2.2,11.4-3.6l0.1,0
			c1.9-0.8,3.9-1.6,5.4-2.4l0.6-0.3c0.7-0.3,1.3-0.6,2-1l0.8-0.4c0.2-0.1,0.3-0.2,0.4-0.2l1.5-0.8c2-1.1,3.7-2.1,5.1-3.1l0.1-0.1
			c0.6-0.4,1.1-0.7,1.7-1.1l0.7-0.5c0.2-0.2,0.5-0.3,0.7-0.5l0.9-0.6C554.3,525,553.7,523.6,553.1,522.3L553.1,522.3z M500.5,403.5
			c19.2-0.3,34.9,13.6,38.4,26c-4.5,0.8-4.6,0.7-6.8-3c-9.9-16.3-29-22.3-46.4-14.3c-6.7,3.1-11.7,8-15.4,14.3
			c-2.2,3.7-2.3,3.7-6.9,3C466.5,417.6,482.1,403.8,500.5,403.5L500.5,403.5z M489.1,481.6c-21-6.8-29.5-27.8-26.2-42.8
			c21.1,3.5,38.7-3.9,53.8-18.2c0.7,3.1,1,6.1,2.1,8.9c3.3,8.4,9.8,14.1,17,19.2c3.2,2.3,3.4,2.3,2.2,5.9c-1,3.1-2.4,6.2-3.8,9.1
			c-0.3,0.7-1.6,1.4-2.5,1.5c-5.3,0.1-10.6,0.1-15.9,0c-0.6,0-1.4-0.1-1.8-0.5c-1.7-2-3.9-2.3-6.3-2.2c-2.6,0.1-5.1,0-7.7,0
			c-3.2,0.1-5.5,2.2-5.5,5.2c0,2.9,2.2,5.2,5.4,5.3c3.1,0.1,6.3,0.2,9.4,0c1.2-0.1,2.6-0.4,3.4-1.2c1.4-1.4,2.9-1.6,4.7-1.6
			c3.7,0.1,7.4,0,11.3,0C523.9,478.4,506.4,487.2,489.1,481.6L489.1,481.6z"/>
		<path class="st5" d="M538.9,429.5c-4.5,0.8-4.6,0.7-6.8-3c-9.9-16.3-29-22.3-46.4-14.3c-6.7,3.1-11.7,8-15.4,14.3
			c-2.2,3.7-2.3,3.7-6.9,3c3.1-12,18.7-25.7,37.1-26C519.6,403.3,535.4,417.1,538.9,429.5L538.9,429.5z"/>
		<path class="st5" d="M538,454.6c-1,3.1-2.4,6.2-3.8,9.1c-0.3,0.7-1.6,1.4-2.5,1.5c-5.3,0.1-10.6,0.1-15.9,0
			c-0.6,0-1.4-0.1-1.8-0.5c-1.7-2-3.9-2.3-6.3-2.2c-2.6,0.1-5.1,0-7.7,0c-3.2,0.1-5.5,2.2-5.5,5.2c0,2.9,2.2,5.2,5.4,5.3
			c3.1,0.1,6.3,0.2,9.4,0c1.2-0.1,2.6-0.4,3.4-1.2c1.4-1.4,2.9-1.6,4.7-1.6c3.7,0.1,7.4,0,11.3,0c-5,8.2-22.5,16.9-39.8,11.3
			c-21-6.8-29.5-27.8-26.2-42.8c21.1,3.5,38.7-3.9,53.8-18.2c0.7,3.1,1,6.1,2.1,8.9c3.3,8.4,9.8,14.1,17,19.2
			C539.1,450.9,539.3,450.9,538,454.6L538,454.6z"/>
		
			<linearGradient id="SVGID_00000083798252139365709510000013786800377799062438_" gradientUnits="userSpaceOnUse" x1="271.5042" y1="772.813" x2="275.9194" y2="527.9883" gradientTransform="matrix(1 0 0 -1 202.5 1081)">
			<stop  offset="0" style="stop-color:#B6DE77"/>
			<stop  offset="1" style="stop-color:#589A77"/>
		</linearGradient>
		<path style="fill:url(#SVGID_00000083798252139365709510000013786800377799062438_);" d="M597.2,452.6l-0.1,1.6l0,0.8
			c0,0.3,0,0.5-0.1,0.8l-0.1,1.6c0,0.5-0.1,1.1-0.2,1.6c-0.1,1.1-0.2,2.1-0.4,3.2c0,0.3-0.1,0.5-0.1,0.8l-0.1,0.8l-0.1,0.8L596,465
			l-0.1,0.4c-0.7,4.2-1.6,8.4-2.8,12.4c-2.4,8.1-5.9,15.9-10.3,23.1l-0.8,1.3c-0.3,0.5-0.6,0.9-0.9,1.3l-0.4,0.7
			c-0.1,0.2-0.3,0.4-0.4,0.7l-0.9,1.3l-0.9,1.3l-0.5,0.6l-0.5,0.6l-1,1.3l-1,1.2c-0.2,0.2-0.3,0.4-0.5,0.6l-0.5,0.6
			c-0.3,0.4-0.7,0.8-1,1.2c-0.7,0.8-1.4,1.6-2.1,2.4c-1.4,1.6-2.9,3.1-4.4,4.5l-1.1,1.1c-0.4,0.4-0.8,0.7-1.2,1.1
			c-0.4,0.4-0.8,0.7-1.2,1l-1.2,1l-1.2,1l-0.6,0.5l-0.6,0.5l-1.2,1l-1.3,0.9c-0.2,0.2-0.4,0.3-0.6,0.5l-0.6,0.5
			c-0.4,0.3-0.9,0.6-1.3,0.9c-0.9,0.6-1.7,1.2-2.6,1.7c-1.8,1.1-3.6,2.2-5.4,3.2l-1.4,0.7c-0.2,0.1-0.5,0.2-0.7,0.4l-0.7,0.4
			c-0.9,0.5-1.9,0.9-2.8,1.4c-1.9,0.9-3.8,1.7-5.8,2.5c-3.9,1.5-7.9,2.8-11.9,3.8c-8.1,2-16.4,3-24.8,2.8l-1.6,0l-1.6-0.1l-0.8,0
			l-0.8-0.1l-1.6-0.1c-2.1-0.2-4.1-0.4-6.2-0.7c-4.1-0.6-8.2-1.5-12.2-2.6c-2-0.6-4-1.2-5.9-1.9c-1-0.3-1.9-0.7-2.9-1.1
			c-0.5-0.2-1-0.4-1.4-0.6c-0.5-0.2-1-0.4-1.4-0.6l-1.4-0.6c-0.5-0.2-0.9-0.4-1.4-0.7c-0.9-0.4-1.9-0.9-2.8-1.4
			c-0.5-0.2-0.9-0.5-1.4-0.7l-0.7-0.4c-0.2-0.1-0.5-0.2-0.7-0.4l-1.4-0.8l-1.3-0.8c-14.3-8.5-26.3-20.8-34.5-35.3
			c-0.5-0.9-1-1.8-1.5-2.7c-0.2-0.5-0.5-0.9-0.7-1.4l-0.4-0.7c-0.1-0.2-0.2-0.5-0.3-0.7l-0.7-1.4l-0.6-1.4l-0.3-0.7l-0.3-0.7
			l-0.6-1.4l-0.6-1.5l-0.3-0.7l-0.3-0.7l-0.5-1.5l-0.5-1.5c-0.1-0.2-0.2-0.5-0.2-0.7l-0.2-0.7l-0.5-1.5L408,477
			c-0.1-0.2-0.1-0.5-0.2-0.7l-0.2-0.8l-0.4-1.5l-0.3-1.5l-0.2-0.8l-0.2-0.8l-0.3-1.5l-0.3-1.5l-0.1-0.8l-0.1-0.8l-0.2-1.5l-0.2-1.6
			l-0.1-0.8c0-0.3-0.1-0.5-0.1-0.8l-0.2-1.6c0-0.5-0.1-1-0.1-1.6c0-0.5-0.1-1-0.1-1.6l-0.1-1.6c0-0.3,0-0.5,0-0.8l0-0.8l0-0.8
			c0-0.3,0-0.5,0-0.8v-1.6c0-4.2,0.3-8.4,0.9-12.5c0.6-4.2,1.4-8.3,2.5-12.3c1.1-4,2.5-8,4.1-11.9c0.9-2.2,1.9-4.4,3-6.5
			c1.5-2.6,3.8-5.7,6.8-7.6c8.4-5.4,27-1.6,38.5-11.4c10.9-9.4,15.4-24.7,14.5-39c-0.9-14.4-6.5-28-12.7-41
			c-2.1,7.9-7.8,14.4-14.2,19.4c-6.5,5-13.8,8.8-20.6,13.3c-6.8,4.5-13.3,9.9-17.1,17.2c-3.2,6.1-4.2,13.1-4,20
			c0.2,6.9,3,14.2,5.9,20.8c0,0,5.2-9.5,12.3-15.3c29.1-23.7,33.1-38.6,33.6-42c-1.9,15.9-11.4,25.7-19.6,33.7
			c-1.5,1.4-2.9,2.8-4.2,4.1c-7.3,6.2-13.7,13.5-18.9,21.7c-2.3,3.7-4.4,7.5-6.2,11.4c-0.8,1.8-1.6,3.6-2.3,5.5
			c-0.2-6-2.1-10.3-5.4-14.4c-4.1-5-9.8-8.5-15.5-11.6c-1.1-0.7-2.2-1.4-3.4-2.1c-6.5-4.1-14.1-9.2-17.7-19.3
			c0.8,2.1,5.5,11.3,28,22.8c5.5,2.8,10.2,8.3,10.2,8.3c1-4.7,1.7-10,0.9-14.5c-0.8-4.5-2.5-9-5.4-12.6c-3.5-4.2-8.5-6.9-13.6-8.9
			c-5.1-2-10.4-3.4-15.4-5.8c-4.9-2.4-9.6-5.8-12.1-10.7c-2.3,9.4-4,19.2-2.5,28.7c1.4,9.6,6.5,19,15,23.6
			c8.9,4.8,19.3-0.5,25.3,2.3c6.5,3,9.9,15.9,8.3,23.7c-0.9,3.2-1.6,6.5-2.2,9.9c-0.7,4.3-1.1,8.7-1.3,13
			c-0.6,17.5,3.6,35.2,12.1,50.6c8.4,15.4,21.1,28.5,36.2,37.5c7.5,4.5,15.7,8,24.2,10.3c4.2,1.2,8.6,2.1,12.9,2.7
			c2.2,0.3,4.4,0.5,6.6,0.7l1.7,0.1l0.8,0l0.8,0l1.6,0h1.6c4.4,0,8.8-0.2,13.1-0.8c0.5-0.1,1.1-0.1,1.6-0.2c0.5-0.1,1.1-0.2,1.6-0.2
			l1.6-0.3c0.3,0,0.5-0.1,0.8-0.1l0.8-0.2c0.5-0.1,1.1-0.2,1.6-0.3l1.6-0.4c0.3-0.1,0.5-0.1,0.8-0.2l0.8-0.2l1.6-0.4l1.6-0.4
			c0.3-0.1,0.5-0.1,0.8-0.2l0.8-0.2l1.6-0.5l1.6-0.5c0.3-0.1,0.5-0.2,0.8-0.3l0.8-0.3c0.5-0.2,1-0.4,1.5-0.6c1-0.4,2-0.8,3.1-1.2
			c2-0.8,4-1.8,6-2.7c1-0.5,2-1,2.9-1.5l0.7-0.4c0.2-0.1,0.5-0.3,0.7-0.4l1.4-0.8c1.9-1.1,3.7-2.3,5.5-3.5c0.9-0.6,1.8-1.2,2.7-1.9
			c0.4-0.3,0.9-0.7,1.3-1l0.7-0.5c0.2-0.2,0.4-0.3,0.6-0.5l1.3-1l1.3-1l0.6-0.5l0.6-0.5l1.2-1.1c0.8-0.7,1.6-1.5,2.4-2.2
			c0.4-0.4,0.8-0.7,1.2-1.1l1.2-1.2c6.1-6.2,11.4-13.2,15.6-20.8c0.3-0.5,0.5-0.9,0.8-1.4c0.2-0.5,0.5-0.9,0.8-1.4
			c0.5-1,1-1.9,1.4-2.9c0.9-2,1.8-4,2.6-6l0.6-1.5c0.2-0.5,0.4-1,0.5-1.5c0.4-1,0.7-2,1-3.1c0.6-2.1,1.2-4.1,1.7-6.2
			c1-4.2,1.7-8.5,2.2-12.7l0-0.4l0-0.4l0.1-0.8l0.1-0.8c0-0.3,0-0.5,0.1-0.8c0.1-1.1,0.1-2.1,0.2-3.2
			C597.3,456.8,597.3,454.7,597.2,452.6L597.2,452.6z"/>
	</g>
</g>
<path class="st7" d="M244,603.4l-13.3-16.3v16.3h-7.3v-36.6h7.3v16.4l13.3-16.4h8.9l-15.1,18.2l15.5,18.5H244z M265.5,578.9
	c0.9-1.5,2.2-2.7,3.7-3.6c1.5-0.9,3.3-1.3,5.2-1.3v7.7h-1.9c-2.3,0-4.1,0.5-5.2,1.6c-1.2,1.1-1.7,3-1.7,5.7v14.5h-7.3v-29.1h7.3
	V578.9z M283.1,570.9c-1.3,0-2.4-0.4-3.3-1.2c-0.8-0.8-1.3-1.9-1.3-3.1c0-1.2,0.4-2.2,1.3-3c0.9-0.8,2-1.3,3.3-1.3
	c1.3,0,2.4,0.4,3.2,1.3c0.9,0.8,1.3,1.8,1.3,3c0,1.2-0.4,2.3-1.3,3.1C285.4,570.5,284.4,570.9,283.1,570.9z M286.7,574.3v29.1h-7.3
	v-29.1H286.7z M305.1,603.9c-2.4,0-4.5-0.4-6.4-1.3c-1.9-0.9-3.4-2-4.5-3.5c-1.1-1.5-1.7-3.1-1.8-4.9h7.4c0.1,1.1,0.7,2,1.6,2.8
	c1,0.7,2.2,1.1,3.6,1.1c1.4,0,2.5-0.3,3.3-0.8c0.8-0.6,1.2-1.3,1.2-2.2c0-0.9-0.5-1.6-1.5-2.1c-0.9-0.5-2.5-1-4.6-1.6
	c-2.2-0.5-4-1.1-5.4-1.6c-1.4-0.6-2.6-1.4-3.6-2.6c-1-1.2-1.5-2.7-1.5-4.7c0-1.6,0.5-3.1,1.4-4.4c0.9-1.3,2.3-2.4,4-3.1
	c1.7-0.8,3.8-1.2,6.1-1.2c3.5,0,6.2,0.9,8.3,2.6c2.1,1.7,3.2,4,3.4,7h-7c-0.1-1.2-0.6-2.1-1.5-2.7c-0.8-0.7-2-1-3.4-1
	c-1.3,0-2.4,0.2-3.1,0.7c-0.7,0.5-1,1.2-1,2c0,1,0.5,1.7,1.5,2.3c1,0.5,2.5,1,4.6,1.5c2.1,0.5,3.8,1.1,5.2,1.6
	c1.4,0.6,2.5,1.4,3.5,2.6c1,1.2,1.5,2.7,1.6,4.6c0,1.7-0.5,3.2-1.4,4.5c-0.9,1.3-2.2,2.4-4,3.1C309.4,603.5,307.4,603.9,305.1,603.9
	z M338.9,573.9c2.2,0,4.2,0.5,5.9,1.5c1.7,0.9,3,2.4,4,4.3c1,1.9,1.5,4.1,1.5,6.7v17.1h-7.3v-16.1c0-2.3-0.6-4.1-1.7-5.3
	c-1.2-1.3-2.7-1.9-4.7-1.9c-2,0-3.6,0.6-4.8,1.9c-1.2,1.2-1.7,3-1.7,5.3v16.1h-7.3v-38.8h7.3V578c0.9-1.3,2.2-2.2,3.8-2.9
	C335.2,574.3,337,573.9,338.9,573.9z M361,570.9c-1.3,0-2.4-0.4-3.3-1.2c-0.8-0.8-1.3-1.9-1.3-3.1c0-1.2,0.4-2.2,1.3-3
	c0.9-0.8,2-1.3,3.3-1.3c1.3,0,2.4,0.4,3.2,1.3c0.9,0.8,1.3,1.8,1.3,3c0,1.2-0.4,2.3-1.3,3.1C363.3,570.5,362.3,570.9,361,570.9z
	 M364.6,574.3v29.1h-7.3v-29.1H364.6z M403.2,603.4l-8.1-14.3h-3.5v14.3h-7.3v-36.6h13.8c2.8,0,5.2,0.5,7.2,1.5c2,1,3.5,2.3,4.5,4
	c1,1.7,1.5,3.6,1.5,5.7c0,2.4-0.7,4.6-2.1,6.6c-1.4,1.9-3.5,3.3-6.2,4l8.8,14.9H403.2z M391.7,583.6h6.1c2,0,3.5-0.5,4.5-1.4
	c1-1,1.5-2.3,1.5-4c0-1.7-0.5-3-1.5-3.9c-1-0.9-2.5-1.4-4.5-1.4h-6.1V583.6z M416.1,588.8c0-2.9,0.6-5.5,1.7-7.8
	c1.2-2.3,2.8-4,4.8-5.2c2-1.2,4.3-1.8,6.8-1.8c2.2,0,4.1,0.4,5.7,1.3c1.6,0.9,3,2,3.9,3.3v-4.1h7.4v29.1H439v-4.3
	c-0.9,1.4-2.3,2.5-3.9,3.4c-1.6,0.9-3.6,1.3-5.7,1.3c-2.4,0-4.7-0.6-6.7-1.9c-2-1.3-3.6-3-4.8-5.3
	C416.7,594.4,416.1,591.8,416.1,588.8z M439,588.9c0-1.8-0.4-3.3-1.1-4.6c-0.7-1.3-1.6-2.3-2.8-2.9c-1.2-0.7-2.5-1-3.8-1
	c-1.4,0-2.6,0.3-3.8,1c-1.2,0.7-2.1,1.6-2.8,2.9c-0.7,1.3-1.1,2.8-1.1,4.5c0,1.8,0.4,3.3,1.1,4.6c0.7,1.3,1.7,2.3,2.8,3
	c1.2,0.7,2.4,1,3.8,1c1.4,0,2.6-0.3,3.8-1c1.2-0.7,2.1-1.7,2.8-2.9C438.6,592.2,439,590.7,439,588.9z M470.8,603.4l-9.9-12.4v12.4
	h-7.3v-38.8h7.3v22.1l9.8-12.3h9.6l-12.8,14.6l12.9,14.5H470.8z M495.3,603.9c-2.4,0-4.5-0.4-6.4-1.3c-1.9-0.9-3.4-2-4.5-3.5
	c-1.1-1.5-1.7-3.1-1.8-4.9h7.4c0.1,1.1,0.7,2,1.6,2.8c1,0.7,2.2,1.1,3.6,1.1c1.4,0,2.5-0.3,3.3-0.8c0.8-0.6,1.2-1.3,1.2-2.2
	c0-0.9-0.5-1.6-1.5-2.1c-0.9-0.5-2.5-1-4.6-1.6c-2.2-0.5-4-1.1-5.4-1.6c-1.4-0.6-2.6-1.4-3.6-2.6c-1-1.2-1.5-2.7-1.5-4.7
	c0-1.6,0.5-3.1,1.4-4.4c0.9-1.3,2.3-2.4,4-3.1c1.8-0.8,3.8-1.2,6.1-1.2c3.5,0,6.2,0.9,8.3,2.6c2.1,1.7,3.2,4,3.4,7h-7
	c-0.1-1.2-0.6-2.1-1.5-2.7c-0.8-0.7-2-1-3.4-1c-1.3,0-2.4,0.2-3.1,0.7c-0.7,0.5-1,1.2-1,2c0,1,0.5,1.7,1.5,2.3c1,0.5,2.5,1,4.6,1.5
	c2.1,0.5,3.8,1.1,5.2,1.6c1.4,0.6,2.5,1.4,3.5,2.6c1,1.2,1.5,2.7,1.6,4.6c0,1.7-0.5,3.2-1.4,4.5c-0.9,1.3-2.2,2.4-4,3.1
	C499.6,603.5,497.6,603.9,495.3,603.9z M529.2,573.9c2.2,0,4.2,0.5,5.9,1.5c1.7,0.9,3,2.4,4,4.3c1,1.9,1.5,4.1,1.5,6.7v17.1h-7.3
	v-16.1c0-2.3-0.6-4.1-1.7-5.3c-1.2-1.3-2.7-1.9-4.7-1.9c-2,0-3.6,0.6-4.8,1.9c-1.2,1.2-1.7,3-1.7,5.3v16.1h-7.3v-38.8h7.3V578
	c0.9-1.3,2.2-2.2,3.8-2.9C525.5,574.3,527.2,573.9,529.2,573.9z M545.6,588.8c0-2.9,0.6-5.5,1.7-7.8c1.2-2.3,2.8-4,4.8-5.2
	c2-1.2,4.3-1.8,6.8-1.8c2.2,0,4.1,0.4,5.7,1.3c1.6,0.9,3,2,3.9,3.3v-4.1h7.4v29.1h-7.4v-4.3c-0.9,1.4-2.3,2.5-3.9,3.4
	c-1.6,0.9-3.6,1.3-5.7,1.3c-2.4,0-4.7-0.6-6.7-1.9c-2-1.3-3.6-3-4.8-5.3C546.2,594.4,545.6,591.8,545.6,588.8z M568.5,588.9
	c0-1.8-0.3-3.3-1-4.6c-0.7-1.3-1.6-2.3-2.8-2.9c-1.2-0.7-2.5-1-3.8-1c-1.4,0-2.6,0.3-3.8,1c-1.2,0.7-2.1,1.6-2.8,2.9
	c-0.7,1.3-1,2.8-1,4.5c0,1.8,0.3,3.3,1,4.6c0.7,1.3,1.7,2.3,2.8,3c1.2,0.7,2.4,1,3.8,1c1.4,0,2.6-0.3,3.8-1c1.2-0.7,2.1-1.7,2.8-2.9
	C568.1,592.2,568.5,590.7,568.5,588.9z M600.3,603.4l-9.9-12.4v12.4h-7.3v-38.8h7.3v22.1l9.8-12.3h9.6l-12.8,14.6l12.9,14.5H600.3z
	 M652.9,578.1c0,2-0.5,3.8-1.4,5.5c-0.9,1.7-2.4,3.1-4.4,4.1c-2,1.1-4.4,1.6-7.5,1.6h-6.1v14.1h-7.3v-36.6h13.5
	c2.8,0,5.2,0.5,7.2,1.5c2,1,3.5,2.3,4.5,4C652.4,574,652.9,576,652.9,578.1z M639.4,583.4c2,0,3.5-0.5,4.5-1.4
	c1-0.9,1.5-2.3,1.5-3.9c0-3.6-2-5.4-6-5.4h-5.8v10.7H639.4z M671.1,603.9c-2.8,0-5.3-0.6-7.6-1.8c-2.2-1.3-4-3-5.3-5.3
	c-1.3-2.3-1.9-4.9-1.9-7.9s0.6-5.6,1.9-7.9c1.3-2.3,3.1-4,5.4-5.2c2.3-1.3,4.8-1.9,7.6-1.9c2.8,0,5.3,0.6,7.6,1.9
	c2.3,1.2,4.1,3,5.4,5.2c1.3,2.3,2,4.9,2,7.9s-0.7,5.6-2,7.9c-1.3,2.3-3.1,4-5.5,5.3C676.4,603.3,673.9,603.9,671.1,603.9z
	 M671.1,597.5c1.3,0,2.6-0.3,3.7-0.9c1.2-0.7,2.1-1.6,2.8-2.9c0.7-1.3,1-2.9,1-4.7c0-2.8-0.7-4.9-2.2-6.4c-1.4-1.5-3.2-2.3-5.3-2.3
	c-2.1,0-3.9,0.8-5.3,2.3c-1.4,1.5-2.1,3.6-2.1,6.4c0,2.8,0.7,4.9,2,6.4C667.2,596.8,669,597.5,671.1,597.5z M699,578.9
	c0.9-1.5,2.2-2.7,3.7-3.6c1.5-0.9,3.3-1.3,5.2-1.3v7.7h-1.9c-2.3,0-4.1,0.5-5.2,1.6c-1.2,1.1-1.7,3-1.7,5.7v14.5h-7.3v-29.1h7.3
	V578.9z M721.4,580.4v14.1c0,1,0.2,1.7,0.7,2.2c0.5,0.4,1.3,0.6,2.4,0.6h3.4v6.2h-4.6c-6.2,0-9.3-3-9.3-9v-14h-3.5v-6h3.5v-7.2h7.4
	v7.2h6.5v6H721.4z M731.3,588.8c0-2.9,0.6-5.5,1.7-7.8c1.2-2.3,2.8-4,4.8-5.2c2-1.2,4.3-1.8,6.8-1.8c2.2,0,4.1,0.4,5.7,1.3
	c1.6,0.9,3,2,3.9,3.3v-4.1h7.4v29.1h-7.4v-4.3c-0.9,1.4-2.3,2.5-3.9,3.4c-1.6,0.9-3.6,1.3-5.7,1.3c-2.4,0-4.7-0.6-6.7-1.9
	c-2-1.3-3.6-3-4.8-5.3C731.9,594.4,731.3,591.8,731.3,588.8z M754.2,588.9c0-1.8-0.4-3.3-1-4.6c-0.7-1.3-1.6-2.3-2.8-2.9
	c-1.2-0.7-2.5-1-3.8-1c-1.4,0-2.6,0.3-3.8,1c-1.2,0.7-2.1,1.6-2.8,2.9c-0.7,1.3-1,2.8-1,4.5c0,1.8,0.4,3.3,1,4.6
	c0.7,1.3,1.7,2.3,2.8,3c1.2,0.7,2.5,1,3.8,1c1.4,0,2.6-0.3,3.8-1c1.2-0.7,2.1-1.7,2.8-2.9C753.8,592.2,754.2,590.7,754.2,588.9z
	 M776.1,564.6v38.8h-7.3v-38.8H776.1z"/>
<g>
	<path class="st8" d="M270.8,622.7h457.7c18.8,0,34,15.2,34,34l0,0c0,18.8-15.2,34-34,34H270.8c-18.8,0-34-15.2-34-34l0,0
		C236.8,637.9,252.1,622.7,270.8,622.7z"/>
	<path class="st5" d="M277,636.7c2.8,0,5,0.7,6.6,2.2c1.6,1.4,2.5,3.4,2.5,5.9c0,2.2-0.7,4.1-2.2,5.6c-1.4,1.5-3.2,2.9-5.4,4.2
		l10.1,9.8c0.9-1.1,1.6-2.3,2.2-3.7c0.6-1.4,1.1-3,1.5-4.6h4.7c-0.6,2.2-1.3,4.3-2.1,6.2c-0.8,1.9-1.9,3.6-3.3,5l7.7,7.5h-6.2
		l-4.6-4.4c-1.6,1.5-3.5,2.7-5.5,3.6c-2,0.9-4.5,1.4-7.4,1.4c-3.6,0-6.5-0.9-8.6-2.7c-2.1-1.8-3.2-4.3-3.2-7.6
		c0-2.7,0.7-4.8,2.2-6.5c1.5-1.6,3.4-3.2,5.9-4.6c-1.1-1.3-2.2-2.6-3.1-4c-0.9-1.4-1.4-3.1-1.4-5c0-2.6,0.9-4.6,2.6-6
		C271.7,637.4,274,636.7,277,636.7z M276.8,640.4c-1.5,0-2.7,0.4-3.6,1.2c-0.9,0.8-1.4,1.8-1.4,3.2c0,1.3,0.3,2.4,1,3.5
		c0.7,1.1,1.6,2.2,2.9,3.5c2.1-1.2,3.5-2.3,4.4-3.4c0.9-1.1,1.4-2.3,1.4-3.7c0-1.3-0.4-2.3-1.3-3.1
		C279.4,640.8,278.3,640.4,276.8,640.4z M274.7,656.8c-1.9,1.1-3.4,2.3-4.5,3.4c-1,1.2-1.6,2.7-1.6,4.6c0,1.9,0.6,3.5,1.9,4.6
		c1.3,1.2,3,1.7,5.2,1.7c2.2,0,4.2-0.4,5.8-1.1c1.6-0.7,3-1.6,4-2.6L274.7,656.8z M345.4,638.1v36.6h-4.8v-16.6H322v16.6h-4.8v-36.6
		h4.8v16.1h18.6v-16.1H345.4z M379.8,659.2c0,0.9-0.1,1.9-0.2,2.9h-23c0.2,2.8,1.1,5.1,2.9,6.7c1.8,1.6,3.9,2.4,6.5,2.4
		c2.1,0,3.8-0.5,5.1-1.4c1.4-1,2.4-2.3,2.9-3.9h5.1c-0.8,2.8-2.3,5-4.6,6.8c-2.3,1.7-5.2,2.6-8.6,2.6c-2.7,0-5.2-0.6-7.3-1.8
		c-2.1-1.2-3.8-3-5-5.2c-1.2-2.3-1.8-4.9-1.8-7.9s0.6-5.6,1.8-7.8c1.2-2.2,2.9-4,5-5.1c2.2-1.2,4.7-1.8,7.5-1.8
		c2.7,0,5.1,0.6,7.2,1.8c2.1,1.2,3.7,2.8,4.8,4.9C379.3,654.3,379.8,656.6,379.8,659.2z M374.9,658.2c0-1.8-0.4-3.4-1.2-4.7
		c-0.8-1.3-1.9-2.3-3.3-3c-1.4-0.7-2.9-1-4.6-1c-2.4,0-4.5,0.8-6.2,2.3c-1.7,1.5-2.6,3.7-2.9,6.4H374.9z M390.9,635.9v38.8h-4.8
		v-38.8H390.9z M403.8,651.3c0.9-1.6,2.3-3,4.2-4.1c1.9-1.1,4.1-1.7,6.6-1.7c2.6,0,4.9,0.6,6.9,1.8c2.1,1.2,3.7,3,4.9,5.2
		c1.2,2.2,1.8,4.8,1.8,7.7c0,2.9-0.6,5.5-1.8,7.8c-1.2,2.3-2.8,4-4.9,5.3c-2.1,1.3-4.4,1.9-6.9,1.9c-2.4,0-4.6-0.5-6.5-1.6
		c-1.9-1.1-3.3-2.5-4.3-4.1v18.9h-4.8V646h4.8V651.3z M423.4,660.2c0-2.2-0.4-4.1-1.3-5.7c-0.9-1.6-2.1-2.8-3.6-3.7
		c-1.5-0.8-3.1-1.3-4.9-1.3c-1.7,0-3.4,0.4-4.9,1.3c-1.5,0.8-2.7,2.1-3.6,3.7c-0.9,1.6-1.3,3.5-1.3,5.6c0,2.2,0.4,4.1,1.3,5.7
		c0.9,1.6,2.1,2.9,3.6,3.7c1.5,0.8,3.1,1.3,4.9,1.3c1.8,0,3.4-0.4,4.9-1.3c1.5-0.9,2.7-2.1,3.6-3.7
		C422.9,664.4,423.4,662.4,423.4,660.2z M439.3,635.9v38.8h-4.8v-38.8H439.3z M449.9,641.3c-0.9,0-1.7-0.3-2.3-0.9
		c-0.6-0.6-0.9-1.4-0.9-2.3c0-0.9,0.3-1.7,0.9-2.3c0.6-0.6,1.4-0.9,2.3-0.9c0.9,0,1.6,0.3,2.2,0.9c0.6,0.6,0.9,1.4,0.9,2.3
		c0,0.9-0.3,1.7-0.9,2.3C451.5,641,450.8,641.3,449.9,641.3z M452.2,646v28.8h-4.8V646H452.2z M474.4,645.4c3.5,0,6.3,1.1,8.5,3.2
		c2.2,2.1,3.3,5.1,3.3,9.1v17h-4.7v-16.3c0-2.9-0.7-5.1-2.2-6.6c-1.4-1.5-3.4-2.3-5.9-2.3c-2.5,0-4.5,0.8-6,2.4
		c-1.5,1.6-2.2,3.9-2.2,6.9v15.9h-4.8V646h4.8v4.1c0.9-1.5,2.2-2.6,3.8-3.4C470.6,645.8,472.4,645.4,474.4,645.4z M520.2,659.2
		c0,0.9-0.1,1.9-0.2,2.9h-23c0.2,2.8,1.1,5.1,2.9,6.7c1.8,1.6,3.9,2.4,6.5,2.4c2.1,0,3.8-0.5,5.1-1.4c1.4-1,2.4-2.3,2.9-3.9h5.1
		c-0.8,2.8-2.3,5-4.6,6.8c-2.3,1.7-5.2,2.6-8.6,2.6c-2.7,0-5.2-0.6-7.3-1.8c-2.1-1.2-3.8-3-5-5.2c-1.2-2.3-1.8-4.9-1.8-7.9
		s0.6-5.6,1.8-7.8c1.2-2.2,2.9-4,5-5.1c2.2-1.2,4.7-1.8,7.5-1.8c2.7,0,5.1,0.6,7.2,1.8c2.1,1.2,3.7,2.8,4.8,4.9
		C519.6,654.3,520.2,656.6,520.2,659.2z M515.2,658.2c0-1.8-0.4-3.4-1.2-4.7c-0.8-1.3-1.9-2.3-3.3-3c-1.4-0.7-2.9-1-4.6-1
		c-2.4,0-4.5,0.8-6.2,2.3c-1.7,1.5-2.6,3.7-2.9,6.4H515.2z M539.9,649.4c0-1.3,0.3-2.3,0.9-2.8c0.6-0.5,1.4-0.8,2.3-0.8
		c0.9,0,1.7,0.3,2.3,0.8c0.7,0.5,1,1.5,1,2.8c0,1.3-0.3,2.2-1,2.7c-0.6,0.6-1.4,0.8-2.3,0.8c-0.9,0-1.6-0.3-2.3-0.8
		C540.3,651.6,539.9,650.7,539.9,649.4z M539.9,671.9c0-1.3,0.3-2.2,0.9-2.7c0.6-0.5,1.4-0.8,2.3-0.8c0.9,0,1.7,0.3,2.3,0.8
		c0.7,0.5,1,1.4,1,2.7c0,1.3-0.3,2.2-1,2.7c-0.6,0.6-1.4,0.8-2.3,0.8c-0.9,0-1.6-0.3-2.3-0.8S539.9,673.1,539.9,671.9z"/>
	<path class="st5" d="M585.1,642.3V639h7.4v36.7h-7.6v-23.8c-0.6,0.2-1.2,0.2-2,0.2h-6.1v-6.2h5.5
		C584.3,645.9,585.1,644.5,585.1,642.3z M601.1,667.8v-6.2l16.2-22.6h9.2v22.6h5.1v6.3h-5.1v7.9h-7.4v-7.9H601.1z M619.1,646.5
		l-10.8,15.1h10.8V646.5z M638.2,667.8v-6.2l16.2-22.6h9.2v22.6h5.1v6.3h-5.1v7.9h-7.4v-7.9H638.2z M656.2,646.5l-10.8,15.1h10.8
		V646.5z M675.2,667.8v-6.2l16.2-22.6h9.2v22.6h5.1v6.3h-5.1v7.9h-7.4v-7.9H675.2z M693.2,646.5l-10.8,15.1h10.8V646.5z
		 M710.1,645.4V639H737v4.9l-16.2,31.9h-8.2l16.1-30.3H710.1z"/>
</g>
</svg>
