<svg xmlns="http://www.w3.org/2000/svg" width="25.162" height="26.763" viewBox="0 0 25.162 26.763">
  <path id="d39e66b3265f8064ab25577aa9948d72" d="M11.851,26.261a.762.762,0,0,0-1.078,0l-.986.986L8.8,26.261A.762.762,0,1,0,7.723,27.34l.986.986-.986.986A.762.762,0,1,0,8.8,30.39l.986-.986.986.986a.762.762,0,1,0,1.078-1.078l-.986-.986.986-.986A.762.762,0,0,0,11.851,26.261Zm6.862,0a.762.762,0,0,0-1.078,0l-.986.986-.986-.986a.762.762,0,1,0-1.078,1.078l.986.986-.986.986a.762.762,0,1,0,1.078,1.078l.986-.986.986.986a.762.762,0,1,0,1.078-1.078l-.986-.986.986-.986A.762.762,0,0,0,18.714,26.261Zm6.862,0a.762.762,0,0,0-1.078,0l-.986.986-.986-.986a.762.762,0,1,0-1.078,1.078l.986.986-.986.986a.762.762,0,1,0,1.078,1.078l.986-.986.986.986a.762.762,0,1,0,1.078-1.078l-.986-.986.986-.986a.762.762,0,0,0,0-1.078Zm5.876,2.064.986-.986a.762.762,0,1,0-1.078-1.078l-.986.986-.986-.986A.762.762,0,1,0,28.31,27.34l.986.986-.986.986a.762.762,0,1,0,1.078,1.078l.986-.986.986.986a.762.762,0,1,0,1.078-1.078Zm-20.14,3.812H8.262a.762.762,0,0,0,0,1.525h3.05a.762.762,0,1,0,0-1.525Zm6.862,0h-3.05a.762.762,0,0,0,0,1.525h3.05a.762.762,0,1,0,0-1.525Zm6.862,0h-3.05a.762.762,0,0,0,0,1.525h3.05a.762.762,0,0,0,0-1.525Zm6.862,0h-3.05a.762.762,0,0,0,0,1.525H31.9a.762.762,0,1,0,0-1.525Zm-5.3-18.6H25.189V12.009a5.109,5.109,0,0,0-10.217,0v1.525H13.562a.755.755,0,0,0-.762.762v7.167a2.289,2.289,0,0,0,2.287,2.287h9.988a2.289,2.289,0,0,0,2.287-2.287V14.3a.755.755,0,0,0-.762-.762ZM16.5,12.009a3.584,3.584,0,0,1,7.167,0v1.525H16.5Z" transform="translate(-7.5 -6.9)" fill="#2a2a2a"/>
</svg>
