<svg xmlns="http://www.w3.org/2000/svg" width="26.031" height="20.944" viewBox="0 0 26.031 20.944">
  <path id="Path_37889" data-name="Path 37889" d="M19.635,16H17.055a1.046,1.046,0,0,0-1.043,1.043v3.9h4.666v-3.9A1.046,1.046,0,0,0,19.635,16ZM12.831,2.77h3a.719.719,0,0,1,.717.718V5.367a.72.72,0,0,1-.717.718H14.072l-1.09.937a.12.12,0,0,1-.17-.013.117.117,0,0,1-.028-.086l.058-.837h-.01a.72.72,0,0,1-.718-.717V3.488a.719.719,0,0,1,.718-.718ZM2.345.062A84.343,84.343,0,0,0,12.888.719,86.535,86.535,0,0,0,23.431.062L23.924,0V12.8l-.493-.06a87.775,87.775,0,0,0-10.543-.657,83.254,83.254,0,0,0-10.541.655l-.494.063V0l.493.062ZM12.888,1.594A85.193,85.193,0,0,1,2.731.993V11.807a84.022,84.022,0,0,1,10.157-.6,88.516,88.516,0,0,1,10.157.6V.992a87.268,87.268,0,0,1-10.157.6Zm-6,8.7a.264.264,0,0,1,0-.527H19.033a.264.264,0,1,1,0,.527Zm7.123-1.41a.264.264,0,1,1,0-.528h5.02a.264.264,0,0,1,0,.528Zm1.64-1.41a.264.264,0,0,1,0-.527h3.372a.264.264,0,1,1,0,.527Zm-6.171.5h.08a.131.131,0,0,0,.131-.131V7.633A.131.131,0,0,0,9.562,7.5H9.088a.131.131,0,0,0-.131.131v.213a.131.131,0,0,0,.131.131h.081l-.156.792h.619l-.15-.792Zm-2.738.792c.062-.8-.095-.764.574-1.014a5.114,5.114,0,0,0,.937-.475l.574,1.489Zm3.677-1.557a3.81,3.81,0,0,0,.866.433c.624.207.622.236.618,1.124H9.829l.592-1.557Zm-1.77-.39c.015-.123-.349-.591-.415-.815A.819.819,0,0,1,8.2,5.182c.062-.1.035-.177.035-.309,0-1.3,2.28-1.3,2.28,0,0,.165-.038.2.051.333a.831.831,0,0,1-.053.8c-.081.236-.462.681-.436.815.024.668-1.429.646-1.424,0ZM14.04,3.653l.929.649a.139.139,0,0,1,.065.117.141.141,0,0,1-.059.114l-.926.64a.136.136,0,0,1-.088.032h0a.14.14,0,0,1-.139-.139v-1.3a.139.139,0,0,1,.139-.139.135.135,0,0,1,.082.027ZM11.718,16H14.3a1.046,1.046,0,0,1,1.043,1.043v3.9H10.674v-3.9A1.046,1.046,0,0,1,11.718,16Zm-8-2.493H6.3a1.046,1.046,0,0,1,1.043,1.043v.764H6.38a1.725,1.725,0,0,0-1.222.507A1.876,1.876,0,0,0,5,16a1.744,1.744,0,0,0-.157-.179,1.723,1.723,0,0,0-1.222-.507H2.676v-.764A1.046,1.046,0,0,1,3.72,13.509Zm18.592,0h-2.58a1.047,1.047,0,0,0-1.043,1.043v.764h.947a1.725,1.725,0,0,1,1.222.507,1.807,1.807,0,0,1,.166.192,1.749,1.749,0,0,1,.163-.189l0,0a1.726,1.726,0,0,1,1.218-.506h.947v-.764a1.046,1.046,0,0,0-1.043-1.043Zm-7.918,0h2.58a1.046,1.046,0,0,1,1.043,1.043v.764h-.963a1.725,1.725,0,0,0-1.222.507,1.876,1.876,0,0,0-.157.179,1.744,1.744,0,0,0-.157-.179,1.723,1.723,0,0,0-1.222-.507h-.947v-.764A1.046,1.046,0,0,1,14.394,13.509Zm-2.757,0H9.057a1.046,1.046,0,0,0-1.043,1.043v.764h.947a1.725,1.725,0,0,1,1.222.507,1.815,1.815,0,0,1,.157.179,1.746,1.746,0,0,1,.156-.179,1.725,1.725,0,0,1,1.222-.507h.963v-.764a1.046,1.046,0,0,0-1.043-1.043ZM8.961,16H6.38a1.046,1.046,0,0,0-1.043,1.043v3.9H10v-3.9A1.046,1.046,0,0,0,8.961,16ZM1.043,16h2.58a1.046,1.046,0,0,1,1.043,1.043v3.9H0v-3.9A1.046,1.046,0,0,1,1.043,16Zm21.365,0h2.58a1.046,1.046,0,0,1,1.043,1.043v3.9H21.365v-3.9A1.046,1.046,0,0,1,22.408,16Z" fill="#d57616" fill-rule="evenodd"/>
</svg>
