<svg xmlns="http://www.w3.org/2000/svg" width="22.568" height="21.791" viewBox="0 0 22.568 21.791">
  <path id="Path_37892" data-name="Path 37892" d="M25.541,15.925s-.012-.023-.016-.035a.312.312,0,0,0-.058-.082c-.008-.012-.016-.019-.023-.031a.472.472,0,0,0-.113-.074l-5.21-2.233V6.722a.4.4,0,0,0-.027-.136c0-.012-.012-.023-.016-.035a.312.312,0,0,0-.058-.082C20.012,6.458,20,6.45,20,6.438a.472.472,0,0,0-.113-.074L14.436,4.03a.375.375,0,0,0-.3,0L8.685,6.364a.472.472,0,0,0-.113.074c-.008.012-.016.019-.023.031a.312.312,0,0,0-.058.082c0,.012-.012.023-.016.035a.4.4,0,0,0-.027.136v6.747L3.237,15.7a.472.472,0,0,0-.113.074c-.008.012-.016.019-.023.031a.312.312,0,0,0-.058.082c0,.012-.012.023-.016.035A.4.4,0,0,0,3,16.061v7a.391.391,0,0,0,.237.358l5.448,2.335a.385.385,0,0,0,.3,0l5.3-2.268,5.3,2.268a.385.385,0,0,0,.3,0l5.448-2.335a.391.391,0,0,0,.237-.358v-7a.4.4,0,0,0-.027-.136ZM8.448,24.808l-4.669-2V16.652l4.669,2Zm.389-6.837L4.377,16.061,8.837,14.15,13.3,16.061Zm5.058-2.5-2.14-.914L9.226,13.469V7.314l4.669,2ZM9.825,6.722l4.459-1.911,4.459,1.911L14.284,8.633Zm9.518,18.086-4.669-2V16.652l4.669,2Zm.389-6.837-4.459-1.911,4.459-1.911,4.459,1.911Z" transform="translate(-3 -3.997)" fill="#8f0094"/>
</svg>
